<?xml version="1.0" encoding="UTF-8"?>
<svg version="1.1" xmlns="http://www.w3.org/2000/svg" width="512" height="512">
<path d="M0 0 C4.91484398 3.03516027 7.90664593 6.57137353 10.234375 11.89453125 C10.62906509 14.65930355 10.83881333 17.04170831 10.84375 19.796875 C10.86028625 20.51943985 10.87682251 21.2420047 10.89385986 21.98646545 C10.94200066 24.26841005 10.96363302 26.54969014 10.984375 28.83203125 C11.01256339 30.39000679 11.0424948 31.94795182 11.07421875 33.50585938 C11.14774905 37.3020285 11.1975293 41.09783607 11.234375 44.89453125 C12.8274448 43.47742033 14.41812624 42.05762422 16.0078125 40.63671875 C16.89388184 39.8463623 17.77995117 39.05600586 18.69287109 38.24169922 C20.85856269 36.2416071 22.87632579 34.1974448 24.859375 32.01953125 C29.23446589 27.6034559 34.06203015 25.82150507 40.234375 25.51953125 C45.43249266 25.77434094 50.09737778 26.93719308 54 30.51171875 C58.50588665 35.60818278 60.5226386 39.33792191 60.546875 46.26953125 C60.56363281 47.37039062 60.58039063 48.47125 60.59765625 49.60546875 C59.83033186 56.55264223 55.87038023 60.68969241 51.09765625 65.359375 C50.49938522 65.95577286 49.9011142 66.55217072 49.28471375 67.16664124 C48.02151919 68.42313869 46.7547444 69.67604594 45.48461914 70.92553711 C43.56339647 72.81577622 41.65288398 74.71630898 39.74414062 76.61914062 C29.802042 86.49688383 29.802042 86.49688383 24.96484375 90.6484375 C24.37324463 91.18428467 23.78164551 91.72013184 23.17211914 92.2722168 C21.234375 93.89453125 21.234375 93.89453125 18.57202148 95.57739258 C14.29837605 98.75764836 11.75578228 101.35034563 10.68347168 106.5826416 C9.79452899 114.70813843 9.98534768 122.85938917 10.109375 131.01953125 C10.11131854 133.52734435 10.10875943 136.03516522 10.1015625 138.54296875 C10.09376646 144.66121015 10.14212329 150.77702359 10.234375 156.89453125 C11.48307373 157.03930908 12.73177246 157.18408691 14.01831055 157.33325195 C23.71919859 158.45800167 32.70091108 162.77813862 40.9296875 167.85546875 C43.09516072 169.05548684 43.09516072 169.05548684 45.07585144 168.74372864 C48.11385706 167.54852906 49.79127599 165.67329493 52.07543945 163.34643555 C52.54270447 162.87478973 53.00996948 162.40314392 53.49139404 161.91720581 C54.50359895 160.89359969 55.51232353 159.86654287 56.51793861 158.83646202 C58.11352876 157.20249573 59.71837923 155.57816074 61.32597351 153.95600891 C65.31885771 149.92305409 69.2954078 145.87411565 73.27233887 141.82543945 C76.63098704 138.40739051 79.99584449 134.99568544 83.36907005 131.59202003 C84.94338611 129.99837943 86.50831984 128.39591387 88.07307434 126.79289246 C99.06901141 115.62513033 99.06901141 115.62513033 106.6640625 114.29296875 C114.81302586 114.23753363 120.29835508 115.06288091 126.234375 120.89453125 C130.80303399 126.24320519 130.75678813 131.30525149 130.9609375 138.19921875 C129.11621108 147.58153698 121.30850085 154.18022911 114.6800251 160.58267975 C113.07927698 162.13053698 111.49001353 163.68940872 109.90330505 165.25164795 C105.39694783 169.68520874 100.87327008 174.10079987 96.3371582 178.50390625 C93.54897833 181.2118529 90.77550005 183.93415052 88.01060295 186.66585541 C86.95761833 187.70022245 85.89897595 188.72886251 84.83465767 189.75156403 C83.35322127 191.17548381 81.89108414 192.61682817 80.43188477 194.06347656 C79.59504654 194.8779425 78.75820831 195.69240845 77.89601135 196.53155518 C75.94280881 198.78114212 75.94280881 198.78114212 76.42201233 201.57911682 C77.1568199 203.67348195 77.92991789 205.576591 78.9765625 207.53125 C79.49089844 208.51387817 79.49089844 208.51387817 80.015625 209.51635742 C80.3765625 210.19802979 80.7375 210.87970215 81.109375 211.58203125 C85.02570753 219.19683296 88.32048841 226.19438617 88.234375 234.89453125 C118.35961322 239.65824018 118.35961322 239.65824018 146.38180828 230.74166012 C159.16626256 221.17906229 169.91627961 208.52097763 179.93400574 196.1824646 C184.8327683 190.1718235 188.72656112 185.68519564 196.6640625 184.29296875 C204.81302586 184.23753363 210.29835508 185.06288091 216.234375 190.89453125 C220.82406672 196.26782888 220.97952646 201.51171025 220.72265625 208.4765625 C219.19786022 219.15013472 208.65197065 226.77407964 201.234375 233.89453125 C202.15661865 233.89340332 203.0788623 233.89227539 204.02905273 233.89111328 C207.49094328 233.90111058 210.9504917 233.93790918 214.41186523 233.9921875 C215.90233485 234.01022062 217.39296986 234.01793925 218.88354492 234.01464844 C227.94131789 234.00250258 235.33768349 234.2591404 242.234375 240.89453125 C246.81894999 246.26183856 246.96067865 251.48589566 246.74609375 258.44140625 C245.9783642 263.62211556 244.05630418 267.31941942 240.234375 270.89453125 C235.1914777 274.24256833 231.4345608 275.49297182 225.33203125 275.50390625 C224.6094664 275.5204425 223.88690155 275.53697876 223.1424408 275.55401611 C220.8604962 275.60215691 218.57921611 275.62378927 216.296875 275.64453125 C214.73889946 275.67271964 213.18095443 275.70265105 211.62304688 275.734375 C207.82687775 275.8079053 204.03107018 275.85768555 200.234375 275.89453125 C201.64134698 277.46276023 203.04904263 279.03033997 204.45703125 280.59765625 C205.24086182 281.47067383 206.02469238 282.34369141 206.83227539 283.24316406 C209.08843122 285.73344278 211.37602135 288.19091997 213.671875 290.64453125 C218.14411475 295.72136803 219.7126998 299.94218711 219.4765625 306.81640625 C218.70048663 313.47563791 216.2523385 317.50206831 211.05078125 321.66796875 C206.86405632 324.49513354 203.97588427 325.18914136 198.859375 325.20703125 C197.75851562 325.22378906 196.65765625 325.24054688 195.5234375 325.2578125 C188.57626402 324.49048811 184.43921384 320.53053648 179.76953125 315.7578125 C179.17313339 315.15954147 178.57673553 314.56127045 177.96226501 313.94487 C176.70576756 312.68167544 175.45286031 311.41490065 174.20336914 310.14477539 C172.31313003 308.22355272 170.41259727 306.31304023 168.50976562 304.40429688 C158.63202242 294.46219825 158.63202242 294.46219825 154.48046875 289.625 C153.94462158 289.03340088 153.40877441 288.44180176 152.85668945 287.83227539 C151.234375 285.89453125 151.234375 285.89453125 149.55151367 283.23217773 C146.37125789 278.9585323 143.77856062 276.41593853 138.54626465 275.34362793 C130.42076782 274.45468524 122.26951708 274.64550393 114.109375 274.76953125 C111.6015619 274.77147479 109.09374103 274.76891568 106.5859375 274.76171875 C100.4676961 274.75392271 94.35188266 274.80227954 88.234375 274.89453125 C88.08959717 276.14322998 87.94481934 277.39192871 87.7956543 278.6784668 C86.67090458 288.37935484 82.35076763 297.36106733 77.2734375 305.58984375 C76.07341941 307.75531697 76.07341941 307.75531697 76.38517761 309.73600769 C77.58037719 312.77401331 79.45561132 314.45143224 81.7824707 316.7355957 C82.25411652 317.20286072 82.72576233 317.67012573 83.21170044 318.15155029 C84.23530656 319.1637552 85.26236338 320.17247978 86.29244423 321.17809486 C87.92641052 322.77368501 89.55074551 324.37853548 91.17289734 325.98612976 C95.20585216 329.97901396 99.2547906 333.95556405 103.3034668 337.93249512 C106.72151574 341.29114329 110.13322081 344.65600074 113.53688622 348.0292263 C115.13052682 349.60354236 116.73299238 351.16847609 118.33601379 352.73323059 C129.50377592 363.72916766 129.50377592 363.72916766 130.8359375 371.32421875 C130.89137262 379.47318211 130.06602534 384.95851133 124.234375 390.89453125 C118.88570106 395.46319024 113.82365476 395.41694438 106.9296875 395.62109375 C97.54736927 393.77636733 90.94867714 385.9686571 84.5462265 379.34018135 C82.99836927 377.73943323 81.43949753 376.15016978 79.8772583 374.5634613 C75.44369751 370.05710408 71.02810638 365.53342633 66.625 360.99731445 C63.91705335 358.20913458 61.19475573 355.4356563 58.46305084 352.6707592 C57.4286838 351.61777458 56.40004374 350.5591322 55.37734222 349.49481392 C53.95342244 348.01337752 52.51207808 346.55124039 51.06542969 345.09204102 C50.25096375 344.25520279 49.4364978 343.41836456 48.59735107 342.5561676 C46.35920387 340.61759795 46.35920387 340.61759795 43.62799072 341.03916931 C40.47879065 342.16454038 37.6252081 343.63796805 34.671875 345.20703125 C26.93588909 349.2037351 19.08849792 353.04350333 10.234375 352.89453125 C5.47066607 383.01976947 5.47066607 383.01976947 14.38724613 411.04196453 C23.94984396 423.82641881 36.60792862 434.57643586 48.94644165 444.59416199 C54.95708275 449.49292455 59.44371061 453.38671737 60.8359375 461.32421875 C60.89137262 469.47318211 60.06602534 474.95851133 54.234375 480.89453125 C48.86107737 485.48422297 43.617196 485.63968271 36.65234375 485.3828125 C25.97877153 483.85801647 18.35482661 473.3121269 11.234375 465.89453125 C11.23550293 466.8167749 11.23663086 467.73901855 11.23779297 468.68920898 C11.22779567 472.15109953 11.19099707 475.61064795 11.13671875 479.07202148 C11.11868563 480.5624911 11.110967 482.05312611 11.11425781 483.54370117 C11.12640367 492.60147414 10.86976585 499.99783974 4.234375 506.89453125 C-1.13293231 511.47910624 -6.35698941 511.6208349 -13.3125 511.40625 C-18.49320931 510.63852045 -22.19051317 508.71646043 -25.765625 504.89453125 C-29.11366208 499.85163395 -30.36406557 496.09471705 -30.375 489.9921875 C-30.39153625 489.26962265 -30.40807251 488.5470578 -30.42510986 487.80259705 C-30.47325066 485.52065245 -30.49488302 483.23937236 -30.515625 480.95703125 C-30.54381339 479.39905571 -30.5737448 477.84111068 -30.60546875 476.28320312 C-30.67899905 472.487034 -30.7287793 468.69122643 -30.765625 464.89453125 C-32.33385398 466.30150323 -33.90143372 467.70919888 -35.46875 469.1171875 C-36.34176758 469.90101807 -37.21478516 470.68484863 -38.11425781 471.49243164 C-40.60453653 473.74858747 -43.06201372 476.0361776 -45.515625 478.33203125 C-50.59246178 482.804271 -54.81328086 484.37285605 -61.6875 484.13671875 C-68.34673166 483.36064288 -72.37316206 480.91249475 -76.5390625 475.7109375 C-79.36622729 471.52421257 -80.06023511 468.63604052 -80.078125 463.51953125 C-80.10326172 461.86824219 -80.10326172 461.86824219 -80.12890625 460.18359375 C-79.36158186 453.23642027 -75.40163023 449.09937009 -70.62890625 444.4296875 C-70.03063522 443.83328964 -69.4323642 443.23689178 -68.81596375 442.62242126 C-67.55276919 441.36592381 -66.2859944 440.11301656 -65.01586914 438.86352539 C-63.09464647 436.97328628 -61.18413398 435.07275352 -59.27539062 433.16992188 C-49.333292 423.29217867 -49.333292 423.29217867 -44.49609375 419.140625 C-43.90449463 418.60477783 -43.31289551 418.06893066 -42.70336914 417.5168457 C-40.765625 415.89453125 -40.765625 415.89453125 -38.10327148 414.21166992 C-33.82962605 411.03141414 -31.28703228 408.43871687 -30.21472168 403.2064209 C-29.32577899 395.08092407 -29.51659768 386.92967333 -29.640625 378.76953125 C-29.64256854 376.26171815 -29.64000943 373.75389728 -29.6328125 371.24609375 C-29.62501646 365.12785235 -29.67337329 359.01203891 -29.765625 352.89453125 C-31.62296265 352.68521973 -31.62296265 352.68521973 -33.51782227 352.47167969 C-36.38640001 352.11169202 -39.01251847 351.68001064 -41.73046875 350.66015625 C-42.38112305 350.41789307 -43.03177734 350.17562988 -43.70214844 349.92602539 C-44.3624707 349.66813232 -45.02279297 349.41023926 -45.703125 349.14453125 C-46.39825195 348.8808374 -47.09337891 348.61714355 -47.80957031 348.34545898 C-52.47086106 346.53194934 -56.77184684 344.42446217 -60.96875 341.6796875 C-63.41083992 340.61260038 -64.27696143 340.94767019 -66.765625 341.89453125 C-69.16930633 343.88257137 -69.16930633 343.88257137 -71.60668945 346.44262695 C-72.07395447 346.91427277 -72.54121948 347.38591858 -73.02264404 347.87185669 C-74.03484895 348.89546281 -75.04357353 349.92251963 -76.04918861 350.95260048 C-77.64477876 352.58656677 -79.24962923 354.21090176 -80.85722351 355.83305359 C-84.85010771 359.86600841 -88.8266578 363.91494685 -92.80358887 367.96362305 C-96.16223704 371.38167199 -99.52709449 374.79337706 -102.90032005 378.19704247 C-104.47463611 379.79068307 -106.03956984 381.39314863 -107.60432434 382.99617004 C-118.60026141 394.16393217 -118.60026141 394.16393217 -126.1953125 395.49609375 C-134.34427586 395.55152887 -139.82960508 394.72618159 -145.765625 388.89453125 C-150.33428399 383.54585731 -150.28803813 378.48381101 -150.4921875 371.58984375 C-148.64746108 362.20752552 -140.83975085 355.60883339 -134.2112751 349.20638275 C-132.61052698 347.65852552 -131.02126353 346.09965378 -129.43455505 344.53741455 C-124.92819783 340.10385376 -120.40452008 335.68826263 -115.8684082 331.28515625 C-113.08022833 328.5772096 -110.30675005 325.85491198 -107.54185295 323.12320709 C-106.48886833 322.08884005 -105.43022595 321.06019999 -104.36590767 320.03749847 C-102.88447127 318.61357869 -101.42233414 317.17223433 -99.96313477 315.72558594 C-99.12629654 314.91112 -98.28945831 314.09665405 -97.42726135 313.25750732 C-95.4886917 311.01936012 -95.4886917 311.01936012 -95.91026306 308.28814697 C-97.03563413 305.1389469 -98.5090618 302.28536435 -100.078125 299.33203125 C-104.07482885 291.59604534 -107.91459708 283.74865417 -107.765625 274.89453125 C-137.89086322 270.13082232 -137.89086322 270.13082232 -165.91305828 279.04740238 C-178.69751256 288.61000021 -189.44752961 301.26808487 -199.46525574 313.6065979 C-204.3640183 319.617239 -208.25781112 324.10386686 -216.1953125 325.49609375 C-224.34427586 325.55152887 -229.82960508 324.72618159 -235.765625 318.89453125 C-240.35531672 313.52123362 -240.51077646 308.27735225 -240.25390625 301.3125 C-238.72911022 290.63892778 -228.18322065 283.01498286 -220.765625 275.89453125 C-221.68786865 275.89565918 -222.6101123 275.89678711 -223.56030273 275.89794922 C-227.02219328 275.88795192 -230.4817417 275.85115332 -233.94311523 275.796875 C-235.43358485 275.77884188 -236.92421986 275.77112325 -238.41479492 275.77441406 C-247.47256789 275.78655992 -254.86893349 275.5299221 -261.765625 268.89453125 C-266.35019999 263.52722394 -266.49192865 258.30316684 -266.27734375 251.34765625 C-265.5096142 246.16694694 -263.58755418 242.46964308 -259.765625 238.89453125 C-254.7227277 235.54649417 -250.9658108 234.29609068 -244.86328125 234.28515625 C-244.1407164 234.26862 -243.41815155 234.25208374 -242.6736908 234.23504639 C-240.3917462 234.18690559 -238.11046611 234.16527323 -235.828125 234.14453125 C-234.27014946 234.11634286 -232.71220443 234.08641145 -231.15429688 234.0546875 C-227.35812775 233.9811572 -223.56232018 233.93137695 -219.765625 233.89453125 C-221.18273592 232.30146145 -222.60253203 230.71078001 -224.0234375 229.12109375 C-224.81379395 228.23502441 -225.60415039 227.34895508 -226.41845703 226.43603516 C-228.41854915 224.27034356 -230.46271145 222.25258046 -232.640625 220.26953125 C-237.05670035 215.89444036 -238.83865118 211.0668761 -239.140625 204.89453125 C-238.88581531 199.69641359 -237.72296317 195.03152847 -234.1484375 191.12890625 C-229.05197347 186.6230196 -225.32223434 184.60626765 -218.390625 184.58203125 C-217.28976563 184.56527344 -216.18890625 184.54851562 -215.0546875 184.53125 C-208.10751402 185.29857439 -203.97046384 189.25852602 -199.30078125 194.03125 C-198.70438339 194.62952103 -198.10798553 195.22779205 -197.49351501 195.8441925 C-196.23701756 197.10738706 -194.98411031 198.37416185 -193.73461914 199.64428711 C-191.84438003 201.56550978 -189.94384727 203.47602227 -188.04101562 205.38476562 C-178.16327242 215.32686425 -178.16327242 215.32686425 -174.01171875 220.1640625 C-173.47587158 220.75566162 -172.94002441 221.34726074 -172.38793945 221.95678711 C-170.765625 223.89453125 -170.765625 223.89453125 -169.08276367 226.55688477 C-165.90250789 230.8305302 -163.30981062 233.37312397 -158.07751465 234.44543457 C-149.95201782 235.33437726 -141.80076708 235.14355857 -133.640625 235.01953125 C-131.1328119 235.01758771 -128.62499103 235.02014682 -126.1171875 235.02734375 C-119.9989461 235.03513979 -113.88313266 234.98678296 -107.765625 234.89453125 C-107.62608398 233.65630615 -107.48654297 232.41808105 -107.34277344 231.14233398 C-106.98278577 228.27375624 -106.55110439 225.64763778 -105.53125 222.9296875 C-105.28898682 222.2790332 -105.04672363 221.62837891 -104.79711914 220.95800781 C-104.53922607 220.29768555 -104.28133301 219.63736328 -104.015625 218.95703125 C-103.75193115 218.2619043 -103.4882373 217.56677734 -103.21655273 216.85058594 C-101.40304309 212.18929519 -99.29555592 207.88830941 -96.55078125 203.69140625 C-95.48369413 201.24931633 -95.81876394 200.38319482 -96.765625 197.89453125 C-98.75366512 195.49084992 -98.75366512 195.49084992 -101.3137207 193.0534668 C-101.78536652 192.58620178 -102.25701233 192.11893677 -102.74295044 191.63751221 C-103.76655656 190.6253073 -104.79361338 189.61658272 -105.82369423 188.61096764 C-107.45766052 187.01537749 -109.08199551 185.41052702 -110.70414734 183.80293274 C-114.73710216 179.81004854 -118.7860406 175.83349845 -122.8347168 171.85656738 C-126.25276574 168.49791921 -129.66447081 165.13306176 -133.06813622 161.7598362 C-134.66177682 160.18552014 -136.26424238 158.62058641 -137.86726379 157.05583191 C-149.03502592 146.05989484 -149.03502592 146.05989484 -150.3671875 138.46484375 C-150.42262262 130.31588039 -149.59727534 124.83055117 -143.765625 118.89453125 C-138.41695106 114.32587226 -133.35490476 114.37211812 -126.4609375 114.16796875 C-117.07861927 116.01269517 -110.47992714 123.8204054 -104.0774765 130.44888115 C-102.52961927 132.04962927 -100.97074753 133.63889272 -99.4085083 135.2256012 C-94.97494751 139.73195842 -90.55935638 144.25563617 -86.15625 148.79174805 C-83.44830335 151.57992792 -80.72600573 154.3534062 -77.99430084 157.1183033 C-76.9599338 158.17128792 -75.93129374 159.2299303 -74.90859222 160.29424858 C-73.48467244 161.77568498 -72.04332808 163.23782211 -70.59667969 164.69702148 C-69.78221375 165.53385971 -68.9677478 166.37069794 -68.12860107 167.2328949 C-65.87901413 169.18609744 -65.87901413 169.18609744 -63.08103943 168.70689392 C-60.9866743 167.97208635 -59.08356525 167.19898836 -57.12890625 166.15234375 C-56.14627808 165.63800781 -56.14627808 165.63800781 -55.14379883 165.11328125 C-54.46212646 164.75234375 -53.7804541 164.39140625 -53.078125 164.01953125 C-45.46332329 160.10319872 -38.46577008 156.80841784 -29.765625 156.89453125 C-25.00191607 126.76929303 -25.00191607 126.76929303 -33.91849613 98.74709797 C-43.48109396 85.96264369 -56.13917862 75.21262664 -68.47769165 65.19490051 C-74.48833275 60.29613795 -78.97496061 56.40234513 -80.3671875 48.46484375 C-80.42262262 40.31588039 -79.59727534 34.83055117 -73.765625 28.89453125 C-68.39232737 24.30483953 -63.148446 24.14937979 -56.18359375 24.40625 C-45.51002153 25.93104603 -37.88607661 36.4769356 -30.765625 43.89453125 C-30.76731689 42.51116577 -30.76731689 42.51116577 -30.76904297 41.09985352 C-30.75904567 37.63796297 -30.72224707 34.17841455 -30.66796875 30.71704102 C-30.64993563 29.2265714 -30.642217 27.73593639 -30.64550781 26.24536133 C-30.65765367 17.18758836 -30.40101585 9.79122276 -23.765625 2.89453125 C-17.29271618 -2.6344117 -7.84970384 -3.13766411 0 0 Z M-53.015625 213.70703125 C-65.63760324 226.94976252 -69.30187663 242.02813127 -69.04296875 259.7265625 C-68.45723586 275.64042961 -60.87554877 287.93224766 -49.765625 298.89453125 C-38.26623261 309.26415877 -24.27289866 314.87559685 -8.765625 314.89453125 C8.88184692 313.78526159 23.21560517 306.85582255 35.390625 294.08203125 C47.69460101 279.48409361 50.62107822 263.43062267 49.234375 244.89453125 C48.37770963 240.30392228 47.03984343 236.19298092 45.234375 231.89453125 C44.90695312 231.03988281 44.57953125 230.18523437 44.2421875 229.3046875 C38.16229728 215.25880974 25.00545081 204.79342196 11.234375 198.89453125 C-11.97381643 189.93111116 -35.38360884 197.19182226 -53.015625 213.70703125 Z " fill="#000000" transform="translate(265.765625,1.10546875)"/>
</svg>
