<?xml version="1.0" encoding="UTF-8"?>
<svg version="1.1" xmlns="http://www.w3.org/2000/svg" width="800" height="211">
<path d="M0 0 C81.51 0 163.02 0 247 0 C240.78802861 37.27182836 231.84074298 74.03649736 224 111 C142.16 111 60.32 111 -24 111 C-22.02 102.09 -20.04 93.18 -18 84 C54.6 84 127.2 84 202 84 C202.33 80.7 202.66 77.4 203 74 C206.3 58.82 209.6 43.64 213 28 C140.73 28 68.46 28 -6 28 C-4 16 -4 16 0 0 Z " fill="#656263" transform="translate(32,50)"/>
<path d="M0 0 C1.03450287 -0.00744736 1.03450287 -0.00744736 2.08990479 -0.01504517 C4.38717637 -0.02972401 6.68437852 -0.03648433 8.98168945 -0.04199219 C10.58339947 -0.0477466 12.18510947 -0.05350429 13.78681946 -0.05926514 C17.15882691 -0.06979651 20.53081043 -0.07562265 23.90283203 -0.07910156 C28.18715998 -0.08453827 32.47116231 -0.10845185 36.75538921 -0.13707352 C40.07321526 -0.15588341 43.39096651 -0.16091551 46.70884132 -0.16243744 C48.28541625 -0.16543217 49.86199089 -0.17335069 51.4385128 -0.18662262 C65.74600604 -0.29829764 80.97329602 0.25569404 92.1574707 10.28613281 C99.43551333 18.0128219 100.73598668 28.37086696 100.62231445 38.56347656 C99.32278456 60.3246954 92.8114078 81.9947319 76.4074707 97.16113281 C60.2540908 109.94402386 40.9832273 111.50400873 21.1652832 111.35644531 C19.66071768 111.35270286 18.15614967 111.34986174 16.65158081 111.34786987 C12.74229892 111.34033019 8.83317198 111.32076817 4.9239502 111.29846191 C0.91457209 111.27779185 -3.09483171 111.2688235 -7.10424805 111.25878906 C-14.93374482 111.23751036 -22.76311514 111.20349551 -30.5925293 111.16113281 C-25.52845432 86.07820043 -20.33555933 61.02268045 -15.04547119 35.98651123 C-14.40835642 32.97111068 -13.77299339 29.95534919 -13.13909912 26.93927002 C-12.38420593 23.34833795 -11.62551873 19.75822835 -10.86385727 16.16872597 C-10.58025537 14.8293663 -10.29792631 13.48973644 -10.01691055 12.14983177 C-9.63092549 10.31081498 -9.23980092 8.4728791 -8.84838867 6.63500977 C-8.51937561 5.07868584 -8.51937561 5.07868584 -8.18371582 3.49092102 C-7.01398963 -1.11881579 -4.36191513 0.02378107 0 0 Z M30.4074707 26.16113281 C28.83521363 33.49228121 27.26928294 40.82476015 25.70776367 48.15820312 C25.17569566 50.65330671 24.64217487 53.14810096 24.10717773 55.64257812 C23.33887596 59.22608585 22.57578872 62.81066995 21.8137207 66.39550781 C21.57310913 67.51229919 21.33249756 68.62909058 21.08459473 69.77972412 C20.86436646 70.8205011 20.64413818 71.86127808 20.41723633 72.93359375 C20.22182251 73.84848572 20.02640869 74.76337769 19.82507324 75.70599365 C19.29568082 78.40329298 19.29568082 78.40329298 19.4074707 82.16113281 C21.94979413 82.24265625 24.48946272 82.30186997 27.0324707 82.34863281 C27.74532227 82.37376953 28.45817383 82.39890625 29.19262695 82.42480469 C34.80344342 82.50201776 38.78496405 81.41066074 43.1652832 77.65332031 C52.81152006 66.24320015 54.72033383 52.18297656 54.8059082 37.69238281 C54.38422129 33.9550792 53.74893954 32.07602259 51.4074707 29.16113281 C46.7499075 26.26375273 41.44762089 26.0169659 36.09106445 26.08691406 C34.48896118 26.10298706 34.48896118 26.10298706 32.85449219 26.11938477 C32.0469751 26.13316162 31.23945801 26.14693848 30.4074707 26.16113281 Z " fill="#646162" transform="translate(441.592529296875,49.8388671875)"/>
<path d="M0 0 C3.49820214 0.15444939 6.99801702 0.22215691 10.49865723 0.29754639 C17.34704679 0.45764321 24.18898163 0.71303302 31.03186035 1.02996826 C34.82721594 23.86937124 38.22139406 46.75566464 41.47436523 69.67797852 C41.97651872 73.20937163 42.48240674 76.74022609 42.9882555 80.27109146 C43.47794262 83.69197396 43.96557933 87.11314617 44.45255089 90.5344162 C44.68362482 92.15643281 44.91527746 93.77836709 45.14753151 95.40021515 C45.46755992 97.63751536 45.78488258 99.87518254 46.10144043 102.11297607 C46.28177322 103.38070862 46.46210602 104.64844116 46.64790344 105.95458984 C47.03186035 109.02996826 47.03186035 109.02996826 47.03186035 112.02996826 C32.18186035 112.02996826 17.33186035 112.02996826 2.03186035 112.02996826 C0.8325862 109.63141995 0.71092471 107.76501357 0.46936035 105.09246826 C0.38557129 104.21719482 0.30178223 103.34192139 0.2154541 102.44012451 C-0.0427944 97.64329594 0.03186035 92.83374351 0.03186035 88.02996826 C-17.29313965 88.52496826 -17.29313965 88.52496826 -34.96813965 89.02996826 C-38.54540218 96.22407155 -38.54540218 96.22407155 -42.11828613 103.42034912 C-42.56244873 104.31117188 -43.00661133 105.20199463 -43.4642334 106.11981201 C-43.91983643 107.03625488 -44.37543945 107.95269775 -44.84484863 108.89691162 C-45.96813965 111.02996826 -45.96813965 111.02996826 -46.96813965 112.02996826 C-48.31908947 112.12265825 -49.67481056 112.14744152 -51.02893066 112.14349365 C-51.88974747 112.14341812 -52.75056427 112.14334259 -53.63746643 112.14326477 C-54.57287766 112.13810349 -55.50828888 112.1329422 -56.4720459 112.12762451 C-57.42506088 112.12620956 -58.37807587 112.12479462 -59.35997009 112.12333679 C-62.4168913 112.11771978 -65.47374042 112.10516442 -68.53063965 112.09246826 C-70.59769589 112.08745545 -72.66475327 112.08289217 -74.73181152 112.07879639 C-79.81061553 112.06774482 -84.88936535 112.05046881 -89.96813965 112.02996826 C-88.7074009 108.75240774 -87.31484863 105.65852743 -85.64001465 102.57293701 C-85.17732178 101.7203833 -84.71462891 100.86782959 -84.23791504 99.98944092 C-83.73638916 99.07468994 -83.23486328 98.15993896 -82.71813965 97.21746826 C-82.19018799 96.25115479 -81.66223633 95.28484131 -81.11828613 94.28924561 C-76.64437618 86.15260398 -71.96832236 78.14328774 -67.25671387 70.14276123 C-62.56328201 62.13722908 -58.11965567 54.01495405 -53.7310791 45.83929443 C-50.14296563 39.16657586 -46.47769039 32.5451666 -42.71813965 25.96746826 C-42.27131836 25.18412109 -41.82449707 24.40077393 -41.36413574 23.59368896 C-40.44438542 21.99236471 -39.4908887 20.41006773 -38.50891113 18.84613037 C-37.23987514 16.52663581 -36.46606944 14.58933426 -35.66369629 12.10638428 C-29.72590933 -3.79743603 -14.44264755 -0.7050668 0 0 Z M-4.96813965 27.02996826 C-7.03120341 30.67548285 -9.09348623 34.32143866 -11.15563965 37.96746826 C-12.02285645 39.49984131 -12.02285645 39.49984131 -12.90759277 41.06317139 C-14.05231911 43.08746147 -15.19540854 45.11267815 -16.33679199 47.13885498 C-17.38870817 49.00308596 -18.44593644 50.86433433 -19.50964355 52.72186279 C-20.19486084 53.92818359 -20.19486084 53.92818359 -20.8939209 55.15887451 C-21.29651123 55.86213867 -21.69910156 56.56540283 -22.1138916 57.28997803 C-23.11504055 59.00612312 -23.11504055 59.00612312 -22.96813965 61.02996826 C-15.37813965 61.02996826 -7.78813965 61.02996826 0.03186035 61.02996826 C-1.28813965 49.80996826 -2.60813965 38.58996826 -3.96813965 27.02996826 C-4.29813965 27.02996826 -4.62813965 27.02996826 -4.96813965 27.02996826 Z " fill="#646162" transform="translate(616.9681396484375,48.97003173828125)"/>
<path d="M0 0 C1.34111343 0.00539291 1.34111343 0.00539291 2.70932007 0.01089478 C3.64580887 0.01074875 4.58229767 0.01060272 5.54716492 0.01045227 C8.65845007 0.01115179 11.76967617 0.01894602 14.88095093 0.02676392 C17.0318651 0.02862796 19.18277971 0.03005192 21.33369446 0.03105164 C27.00711225 0.03487792 32.68050463 0.04470914 38.35391235 0.05575562 C44.13831234 0.06596736 49.92271641 0.07054875 55.7071228 0.07559204 C67.06585796 0.08633131 78.42457421 0.10340906 89.78329468 0.12442017 C88.97705866 4.43811602 88.16226435 8.75015056 87.34579468 13.06192017 C87.11569702 14.29361938 86.88559937 15.5253186 86.64852905 16.79434204 C86.42616577 17.96416626 86.20380249 19.13399048 85.97470093 20.33926392 C85.77046509 21.42328491 85.56622925 22.50730591 85.35580444 23.62417603 C84.78329468 26.12442017 84.78329468 26.12442017 83.78329468 27.12442017 C82.09527483 27.2179518 80.4033426 27.24186807 78.71273804 27.23794556 C77.63169296 27.23787003 76.55064789 27.23779449 75.43684387 27.23771667 C73.67280968 27.22997475 73.67280968 27.22997475 71.87313843 27.22207642 C70.67596695 27.22066147 69.47879547 27.21924652 68.24534607 27.2177887 C64.40380402 27.21216996 60.56231925 27.19961427 56.72079468 27.18692017 C54.12379031 27.18190758 51.52678503 27.17734426 48.92977905 27.17324829 C42.54759789 27.16219444 36.16545038 27.14543809 29.78329468 27.12442017 C29.7343103 27.70449829 29.68532593 28.28457642 29.63485718 28.88223267 C29.56009155 29.66340454 29.48532593 30.44457642 29.40829468 31.24942017 C29.3386853 32.01512329 29.26907593 32.78082642 29.19735718 33.56973267 C28.78329468 36.12442017 28.78329468 36.12442017 26.78329468 42.12442017 C43.61329468 42.12442017 60.44329468 42.12442017 77.78329468 42.12442017 C76.78329468 52.12442017 76.78329468 52.12442017 72.78329468 69.12442017 C55.62329468 69.12442017 38.46329468 69.12442017 20.78329468 69.12442017 C20.45329468 72.09442017 20.12329468 75.06442017 19.78329468 78.12442017 C19.45329468 79.77442017 19.12329468 81.42442017 18.78329468 83.12442017 C36.60329468 83.12442017 54.42329468 83.12442017 72.78329468 83.12442017 C71.73629613 92.54740711 69.73647492 101.84681402 67.78329468 111.12442017 C35.44329468 111.12442017 3.10329468 111.12442017 -30.21670532 111.12442017 C-27.14693889 95.77558798 -24.06172521 80.43785999 -20.82608032 65.12442017 C-20.43204989 63.25682741 -20.03802745 61.38923297 -19.64401245 59.52163696 C-18.83170309 55.67335648 -18.01820407 51.82532965 -17.20401001 47.97744751 C-16.15927593 43.03875159 -15.11938912 38.09904723 -14.08050156 33.15911865 C-13.27493438 29.33264122 -12.46602914 25.50687523 -11.65616608 21.68130493 C-11.27056483 19.85702607 -10.88621384 18.03248247 -10.50313568 16.20767212 C-9.97336224 13.68566988 -9.43891219 11.16470392 -8.90322876 8.64395142 C-8.74636597 7.89201004 -8.58950317 7.14006866 -8.42788696 6.36534119 C-7.05381024 -0.05612476 -6.58479152 0.01118713 0 0 Z " fill="#646162" transform="translate(325.2167053222656,49.875579833984375)"/>
<path d="M0 0 C-0.78525465 4.04293965 -1.57933552 8.08409724 -2.375 12.125 C-2.59671875 13.26710938 -2.8184375 14.40921875 -3.046875 15.5859375 C-3.26601563 16.69453125 -3.48515625 17.803125 -3.7109375 18.9453125 C-3.90993652 19.96125488 -4.10893555 20.97719727 -4.31396484 22.02392578 C-5.02257016 25.09791111 -5.95650259 28.02467466 -7 31 C-7.62003906 30.73445313 -8.24007812 30.46890625 -8.87890625 30.1953125 C-23.63791372 24.30889613 -39.34584649 23.39198082 -54.4375 28.625 C-64.47947503 33.2493717 -70.1770283 40.7967985 -74 51 C-76.34262652 59.04735591 -76.74678021 66.50827947 -73.6875 74.375 C-71.28038611 78.11939939 -69.19151675 79.60282775 -65 81 C-61.38510262 81.10520656 -57.78274405 81.06222701 -54.16674805 81.02905273 C-53.12172119 81.01946533 -52.07669434 81.00987793 -51 81 C-50.823479 80.19256348 -50.64695801 79.38512695 -50.46508789 78.55322266 C-49.66697342 74.90987338 -48.86478972 71.26743203 -48.0625 67.625 C-47.78470703 66.35398437 -47.50691406 65.08296875 -47.22070312 63.7734375 C-46.95322266 62.56171875 -46.68574219 61.35 -46.41015625 60.1015625 C-46.16402588 58.98088379 -45.91789551 57.86020508 -45.66430664 56.70556641 C-45 54 -45 54 -44 52 C-31.79 52 -19.58 52 -7 52 C-9.30150585 66.95978801 -9.30150585 66.95978801 -10.91015625 74.2578125 C-11.08252304 75.05355682 -11.25488983 75.84930115 -11.43247986 76.66915894 C-11.79111526 78.32118168 -12.15159258 79.97280564 -12.51391602 81.62402344 C-13.06900654 84.15466309 -13.61794716 86.68658118 -14.16601562 89.21875 C-14.51787764 90.83601402 -14.87007841 92.45320438 -15.22265625 94.0703125 C-15.38621109 94.82337677 -15.54976593 95.57644104 -15.71827698 96.35232544 C-16.36492393 99.29263937 -17.04713097 102.14139292 -18 105 C-20.57943338 105.877507 -22.97021697 106.51334109 -25.625 107.0625 C-26.42188232 107.23096436 -27.21876465 107.39942871 -28.03979492 107.57299805 C-53.07063188 112.54647367 -81.34095708 114.41783673 -104 101 C-112.29245438 95.44081271 -117.97706716 86.75767605 -120 77 C-122.69582097 58.66841742 -118.96049051 40.89513912 -108.1484375 25.7421875 C-94.93933383 8.8825679 -75.74455587 -0.57080642 -54.74609375 -3.53515625 C-36.75296146 -5.57553502 -17.51893433 -4.65346693 0 0 Z " fill="#646162" transform="translate(792,52)"/>
<path d="M0 0 C46.53 0 93.06 0 141 0 C136 26 136 26 135 27 C133.19039129 27.09641497 131.37697872 27.12187398 129.56480408 27.12025452 C128.38544785 27.12162918 127.20609161 27.12300385 125.99099731 27.12442017 C124.6854892 27.12082489 123.37998108 27.11722961 122.03491211 27.11352539 C120.65547182 27.11324352 119.27603139 27.11340125 117.89659119 27.1139679 C114.14055882 27.11425588 110.38455811 27.10835905 106.62853312 27.10139394 C102.70739955 27.09516051 98.78626533 27.09455661 94.86512756 27.09336853 C87.43488389 27.09025518 80.00465486 27.08204175 72.57441765 27.07201904 C64.11748362 27.06085801 55.6605489 27.05534748 47.20360935 27.05032361 C29.80239775 27.03985914 12.40120042 27.02225963 -5 27 C-4 18 -4 18 0 0 Z " fill="#656162" transform="translate(68,175)"/>
<path d="M0 0 C46.53 0 93.06 0 141 0 C138.71146245 13.7312253 138.71146245 13.7312253 137.4375 19.6875 C137.18871094 20.86699219 136.93992188 22.04648437 136.68359375 23.26171875 C136 26 136 26 135 27 C133.19039129 27.09641497 131.37697872 27.12187398 129.56480408 27.12025452 C128.38544785 27.12162918 127.20609161 27.12300385 125.99099731 27.12442017 C124.6854892 27.12082489 123.37998108 27.11722961 122.03491211 27.11352539 C120.65547182 27.11324352 119.27603139 27.11340125 117.89659119 27.1139679 C114.14055882 27.11425588 110.38455811 27.10835905 106.62853312 27.10139394 C102.70739955 27.09516051 98.78626533 27.09455661 94.86512756 27.09336853 C87.43488389 27.09025518 80.00465486 27.08204175 72.57441765 27.07201904 C64.11748362 27.06085801 55.6605489 27.05534748 47.20360935 27.05032361 C29.80239775 27.03985914 12.40120042 27.02225963 -5 27 C-3.86470758 17.9176606 -1.88561808 8.9566859 0 0 Z " fill="#646162" transform="translate(103,9)"/>
<path d="M0 0 C46.2 0 92.4 0 140 0 C139 9 139 9 135 27 C88.47 27 41.94 27 -6 27 C-1 2 -1 2 0 0 Z " fill="#656162" transform="translate(86,92)"/>
</svg>
