<?xml version="1.0" encoding="UTF-8"?>
<svg version="1.1" xmlns="http://www.w3.org/2000/svg" width="512" height="512">
<path d="M0 0 C1.02051897 -0.00765109 2.04103794 -0.01530219 3.09248173 -0.02318513 C6.50482801 -0.04378788 9.91649762 -0.03587224 13.32888794 -0.02792358 C15.77834698 -0.03661976 18.22780058 -0.04698671 20.67724609 -0.05889893 C26.6357638 -0.08290046 32.59401655 -0.08798422 38.55255829 -0.0832984 C43.39739572 -0.07972818 48.24217852 -0.08323959 53.08700943 -0.09174728 C53.7773028 -0.09293766 54.46759618 -0.09412804 55.17880753 -0.09535449 C56.58127522 -0.09777807 57.9837429 -0.10020634 59.38621058 -0.10263924 C72.53067149 -0.12437856 85.67502972 -0.1200709 98.81949641 -0.10786955 C110.83437349 -0.09753292 122.84892619 -0.12003925 134.86373912 -0.15806599 C147.21168038 -0.19684633 159.55946828 -0.21333067 171.90747082 -0.20581949 C178.8354956 -0.20199882 185.76324434 -0.20693704 192.69121933 -0.23524857 C199.20682709 -0.26160626 205.72189353 -0.2565248 212.23753738 -0.23042679 C214.62680022 -0.22569441 217.0161087 -0.23116782 219.40531921 -0.24767303 C222.67151831 -0.26860712 225.93553876 -0.25241303 229.20166016 -0.22705078 C230.14340682 -0.24179935 231.08515348 -0.25654792 232.05543792 -0.27174342 C238.95627594 -0.15928685 243.5550996 1.93267243 248.72781372 6.52139282 C252.75911509 11.65589962 253.20525067 16.8037299 253.35671997 23.20108032 C251.76477543 31.60575647 246.30104666 39.07365782 241.79031372 46.20889282 C240.63064005 48.06254705 239.47181505 49.91673243 238.31375122 51.77139282 C237.72046021 52.72014282 237.12716919 53.66889282 236.51589966 54.64639282 C233.61383501 59.31251971 230.76494797 64.01062784 227.91531372 68.70889282 C222.88192279 76.9978159 217.8160024 85.26599769 212.72781372 93.52139282 C207.70365753 101.67353606 202.69963672 109.83722566 197.72781372 118.02139282 C193.37609319 125.18449562 189.00526902 132.33536346 184.61038208 139.47207642 C183.24375436 141.69149659 181.8786512 143.91185633 180.51516724 146.13320923 C177.45350702 151.11797358 174.37662993 156.09008044 171.23562622 161.02529907 C170.71250854 161.85569702 170.18939087 162.68609497 169.65042114 163.54165649 C168.6894948 165.06526895 167.7188965 166.58284227 166.73684692 168.09292603 C164.36940483 171.58309653 164.36940483 171.58309653 163.98806763 175.61807251 C165.12334016 178.53905754 167.12548696 179.60562334 169.66531372 181.39639282 C170.76699916 182.18999124 171.86716408 182.98570318 172.96609497 183.78311157 C173.56889282 184.21800903 174.17169067 184.65290649 174.79275513 185.10098267 C178.3711653 187.7276784 181.85643369 190.47453465 185.35281372 193.20889282 C186.90094507 194.41598274 188.44912282 195.62301313 189.99734497 196.82998657 C190.77674438 197.43826294 191.5561438 198.04653931 192.35916138 198.67324829 C196.25028164 201.70930069 200.14499314 204.74073232 204.04031372 207.77139282 C204.79522095 208.35880249 205.55012817 208.94621216 206.32791138 209.55142212 C211.6342135 213.67770759 216.95888748 217.7791816 222.29031372 221.87295532 C226.61429509 225.19929521 230.92103478 228.54782895 235.22781372 231.89639282 C236.37733521 232.78971313 236.37733521 232.78971313 237.55007935 233.70108032 C238.98371618 234.81655372 240.41585578 235.93395507 241.84622192 237.05361938 C243.42656378 238.28639676 245.01915867 239.50344406 246.61453247 240.71670532 C250.69846882 244.20428128 252.40971775 248.13085344 253.11453247 253.42764282 C253.37991366 260.6752945 252.29907526 266.563183 247.31277466 272.0897522 C245.70923929 273.55856223 244.05822002 274.92237545 242.35281372 276.27139282 C241.09855871 277.30352124 239.84466277 278.33608612 238.59109497 279.36904907 C237.95123657 279.88870239 237.31137817 280.40835571 236.65213013 280.9437561 C233.56518264 283.4745674 230.55807853 286.0963934 227.54031372 288.70889282 C223.5009213 292.18211403 219.42899307 295.60386873 215.29031372 298.95889282 C210.23847655 303.06119232 205.32475392 307.3084126 200.41775513 311.58145142 C195.83684735 315.56843041 191.22039866 319.50950963 186.57644653 323.42276001 C182.56397188 326.8062123 178.58070984 330.22239466 174.60281372 333.64639282 C170.54160496 337.13963139 166.45262401 340.58587989 162.29031372 343.95889282 C157.23847655 348.06119232 152.32475392 352.3084126 147.41775513 356.58145142 C142.83684735 360.56843041 138.22039866 364.50950963 133.57644653 368.42276001 C129.56397188 371.8062123 125.58070984 375.22239466 121.60281372 378.64639282 C117.54160496 382.13963139 113.45262401 385.58587989 109.29031372 388.95889282 C104.23847655 393.06119232 99.32475392 397.3084126 94.41775513 401.58145142 C89.83684735 405.56843041 85.22039866 409.50950963 80.57644653 413.42276001 C76.56397188 416.8062123 72.58070984 420.22239466 68.60281372 423.64639282 C64.54160496 427.13963139 60.45262401 430.58587989 56.29031372 433.95889282 C51.23847655 438.06119232 46.32475392 442.3084126 41.41775513 446.58145142 C36.83684735 450.56843041 32.22039866 454.50950963 27.57644653 458.42276001 C23.56397188 461.8062123 19.58070984 465.22239466 15.60281372 468.64639282 C11.54160496 472.13963139 7.45262401 475.58587989 3.29031372 478.95889282 C-1.09742312 482.52191554 -5.38384038 486.18664396 -9.64718628 489.89639282 C-14.52917724 494.14187261 -19.41262377 498.38486136 -24.33468628 502.58389282 C-25.83708862 503.86973267 -25.83708862 503.86973267 -27.36984253 505.18154907 C-35.42926138 511.67898096 -41.03141805 513.26839846 -51.27218628 512.52139282 C-56.93905805 510.56374621 -60.39019013 506.94110215 -64.02218628 502.27139282 C-70.69303484 487.59552599 -58.66012389 467.02708935 -53.70968628 453.02139282 C-52.85978063 450.61125495 -52.00992813 448.20109834 -51.16012573 445.79092407 C-44.70793931 427.50946499 -38.17710864 409.25660506 -31.62057495 391.01235962 C-25.37730816 373.63496853 -19.19062528 356.23794393 -13.02218628 338.83389282 C-11.18118916 333.63982968 -9.34012233 328.44579128 -7.49874878 323.25186157 C-7.27652838 322.62502472 -7.05430798 321.99818787 -6.82535362 321.35235596 C-0.34109677 303.06343111 6.18862483 284.79073717 12.72781372 266.52139282 C10.0482213 263.45515983 6.7212881 261.58733087 3.24343872 259.56436157 C2.27845459 258.99542427 2.27845459 258.99542427 1.29397583 258.41499329 C-0.08872022 257.60028639 -1.47259142 256.78757128 -2.85751343 255.97665405 C-6.52213547 253.83043332 -10.17778409 251.66901278 -13.83468628 249.50967407 C-14.56459778 249.07920776 -15.29450928 248.64874146 -16.04653931 248.20523071 C-22.06833874 244.65100373 -28.05585456 241.0430234 -34.02218628 237.39639282 C-35.37352661 236.57098999 -35.37352661 236.57098999 -36.75216675 235.72891235 C-38.60638397 234.59579781 -40.46038503 233.46232947 -42.31417847 232.32852173 C-47.32422966 229.26774268 -52.34107752 226.21816361 -57.35894775 223.17022705 C-58.54497689 222.44972806 -59.73087109 221.7290069 -60.91662598 221.00805664 C-67.40668017 217.06230231 -73.90656698 213.13439248 -80.43234253 209.24795532 C-81.00746582 208.90495895 -81.58258911 208.56196259 -82.17514038 208.20857239 C-84.90317647 206.58171037 -87.63322749 204.95848153 -90.36740112 203.34194946 C-91.33500366 202.76565796 -92.3026062 202.18936646 -93.29953003 201.59561157 C-94.56397949 200.84670654 -94.56397949 200.84670654 -95.85397339 200.08267212 C-100.97227045 196.77812798 -105.33463368 193.48082519 -107.27218628 187.52139282 C-109.22498576 175.20921744 -104.80819691 166.96368944 -99.02218628 156.52139282 C-98.1829619 154.95619077 -97.34631746 153.38960285 -96.51217651 151.82168579 C-94.48459985 148.02650661 -92.42626089 144.24939597 -90.35073853 140.48025513 C-88.91679591 137.87593424 -87.49510465 135.26498735 -86.07296753 132.65420532 C-84.71003017 130.15771464 -83.34400545 127.66323619 -81.9670105 125.17446899 C-77.0026796 116.16002214 -72.33441747 106.9943403 -67.64718628 97.83389282 C-67.22982208 97.0183493 -66.81245789 96.20280579 -66.38244629 95.36254883 C-64.7534496 92.17907123 -63.12459568 88.99552066 -61.49604797 85.81181335 C-54.17126323 71.50015465 -46.57758705 57.33433762 -38.96334839 43.17520142 C-35.86202455 37.40160093 -32.78928834 31.61530368 -29.78390503 25.79092407 C-28.97155396 24.21746216 -28.97155396 24.21746216 -28.14279175 22.61221313 C-27.13285566 20.64931009 -26.12766897 18.68395327 -25.12814331 16.71572876 C-19.06447193 4.92609851 -13.42300766 -0.10722777 0 0 Z M7.60417271 42.23562145 C6.26743782 44.3210358 5.48256868 46.17147556 4.72781372 48.52139282 C4.09211009 49.7444212 3.43855584 50.95854134 2.7583313 52.15737915 C2.1261128 53.38757292 1.49755442 54.61965339 0.87234497 55.85342407 C0.52933853 56.52285034 0.18633209 57.19227661 -0.16706848 57.88198853 C-0.89350808 59.30053287 -1.61840241 60.71986952 -2.34182739 62.13995361 C-3.86148455 65.12247266 -5.38943217 68.10071647 -6.91702271 71.07917786 C-7.6735302 72.55426219 -8.42967803 74.02953103 -9.18545532 75.50498962 C-14.54862311 85.97294694 -20.03501256 96.37289177 -25.61203003 106.72842407 C-26.85320094 109.03426 -28.09407682 111.34025476 -29.33468628 113.64639282 C-29.64655884 114.22592712 -29.9584314 114.80546143 -30.27975464 115.40255737 C-36.51473917 127.00015659 -42.55632743 138.69439831 -48.54977417 150.41836548 C-48.89180374 151.08628113 -49.23383331 151.75419678 -49.58622742 152.44235229 C-50.24729202 153.73374737 -50.9069929 155.02584163 -51.56520081 156.31869507 C-53.73149499 160.55019135 -56.04300408 164.66354642 -58.552948 168.7003479 C-59.42022996 170.51763284 -59.42022996 170.51763284 -59.13912964 172.59365845 C-57.9915669 175.14537779 -56.77476482 175.79141383 -54.34640503 177.15811157 C-53.50206909 177.6436853 -52.65773315 178.12925903 -51.78781128 178.62954712 C-50.3878894 179.41132324 -50.3878894 179.41132324 -48.95968628 180.20889282 C-46.93122748 181.3736197 -44.90393765 182.54038414 -42.87765503 183.70889282 C-41.25996216 184.63701782 -41.25996216 184.63701782 -39.60958862 185.58389282 C-34.53288338 188.53113004 -29.52281615 191.58524517 -24.5135498 194.64532471 C-21.54994632 196.45539717 -18.58307112 198.26008533 -15.61593628 200.06436157 C-14.71455681 200.61255806 -14.71455681 200.61255806 -13.79496765 201.17182922 C-7.59614443 204.93824663 -1.37559629 208.66816311 4.847229 212.39474487 C6.71871287 213.51594055 8.58948997 214.63830518 10.45999146 215.76113892 C11.07576553 216.13077759 11.69153961 216.50041626 12.32597351 216.8812561 C13.56983717 217.62797084 14.81368281 218.37471561 16.05751038 219.12149048 C19.26689688 221.04756688 22.47831214 222.97014288 25.69314575 224.88711548 C28.94499741 226.82617981 32.19260958 228.77217029 35.43753052 230.72280884 C36.65730626 231.45428853 37.87862597 232.18320074 39.10159302 232.90933228 C40.79486755 233.91513311 42.48217193 234.93096401 44.16921997 235.94717407 C45.12514038 236.51863159 46.08106079 237.09008911 47.06594849 237.67886353 C51.99908813 241.09355718 55.75421101 244.80833233 57.72781372 250.52139282 C59.54755746 261.99977639 54.77157502 272.40468161 50.91531372 282.95889282 C50.18788045 284.99344756 49.46217341 287.0286202 48.73806763 289.06436157 C46.81132571 294.46724088 44.86228228 299.86181064 42.90853882 305.25497437 C40.99502562 310.5486154 39.10204231 315.84956632 37.20828247 321.15029907 C34.50118384 328.72172688 31.78848924 336.29110397 29.06832886 343.85784912 C23.3647571 359.72461627 17.69159024 375.60209757 12.04208374 391.4881897 C11.04405612 394.2942369 10.04444362 397.0997115 9.04342651 399.9046936 C7.64951006 403.81082415 6.2606561 407.71873524 4.87234497 411.62686157 C4.45146103 412.80439499 4.03057709 413.98192841 3.59693909 415.19514465 C3.02714073 416.80332817 3.02714073 416.80332817 2.4458313 418.44400024 C2.11231155 419.3811235 1.77879181 420.31824677 1.43516541 421.2837677 C0.6273419 423.44809606 0.6273419 423.44809606 0.72781372 425.52139282 C4.17560458 424.02132892 6.55141905 422.0173002 9.29031372 419.45889282 C12.75341531 416.28354166 16.25976628 413.22311098 19.91531372 410.27139282 C24.43722311 406.61293148 28.84560271 402.84446566 33.22781372 399.02139282 C37.50987664 395.28724114 41.81113207 391.59680178 46.22781372 388.02139282 C51.26209644 383.94317566 56.1529208 379.71522224 61.03811646 375.46109009 C65.61897461 371.47422949 70.23531659 367.53320202 74.87918091 363.62002563 C78.89165556 360.23657334 82.8749176 356.82039098 86.85281372 353.39639282 C90.91402248 349.90315426 95.00300343 346.45690576 99.16531372 343.08389282 C104.2163544 338.98224011 109.12909768 334.73548271 114.03567505 330.46353149 C119.69180393 325.54138765 125.40540963 320.69074527 131.13943481 315.85977173 C133.81690325 313.60371856 136.49154329 311.34432676 139.16531372 309.08389282 C139.96388794 308.4090686 139.96388794 308.4090686 140.77859497 307.72061157 C144.22002377 304.80863336 147.64452413 301.87768015 151.0617981 298.93740845 C155.71963298 294.92974026 160.39085008 290.95297669 165.16531372 287.08389282 C170.20761473 282.98933708 175.11818252 278.75641454 180.0071106 274.48110962 C183.16214282 271.7261193 186.33520549 269.00403262 189.57546997 266.34951782 C190.18020142 265.85113403 190.78493286 265.35275024 191.4079895 264.83926392 C192.55526374 263.89728131 193.70837398 262.96234953 194.86795044 262.03555298 C196.21071569 260.92897168 197.4775942 259.73155472 198.72781372 258.52139282 C198.72781372 257.53139282 198.72781372 256.54139282 198.72781372 255.52139282 C196.41609969 253.58028209 194.12010771 251.82741664 191.66531372 250.08389282 C190.18719911 249.00659211 188.71067299 247.92710899 187.23562622 246.84561157 C186.48184692 246.29437622 185.72806763 245.74314087 184.95144653 245.17520142 C181.57880786 242.66682917 178.30702657 240.04040462 175.04031372 237.39639282 C169.49641067 232.92487683 163.89660752 228.54475044 158.23953247 224.21670532 C153.27234293 220.41309255 148.34294689 216.56067896 143.40945435 212.71353149 C139.90742404 209.98495344 136.40073713 207.2641826 132.86453247 204.57998657 C132.2773645 204.13332642 131.69019653 203.68666626 131.0852356 203.22647095 C129.53480847 202.04959702 127.98105657 200.87710671 126.42703247 199.70498657 C120.05523051 194.55037399 115.86506346 190.16443817 114.64578247 181.87686157 C114.92129916 173.96559667 118.38110473 168.10170477 122.41531372 161.52139282 C122.99055786 160.56571411 123.565802 159.6100354 124.15847778 158.62539673 C128.97197616 150.66461096 133.90764626 142.77886722 138.85964966 134.90371704 C143.70260363 127.19565671 148.45265573 119.43441775 153.16531372 111.64639282 C159.36384349 101.40463147 165.60765748 91.19241257 171.89260864 81.00332642 C177.03666464 72.65908083 182.13940617 64.29031084 187.21292114 55.90298462 C189.44715917 52.21865794 191.67385121 48.55491501 194.11843872 45.00576782 C195.90904337 42.73498098 195.90904337 42.73498098 195.72781372 40.52139282 C171.56293488 40.33459735 147.39816406 40.19347974 123.23270893 40.10689545 C112.01248875 40.06562601 100.79271687 40.0093516 89.57278442 39.9178772 C79.79464858 39.83819547 70.01683734 39.78654038 60.23838586 39.76868486 C55.05948375 39.75824546 49.88151037 39.73367545 44.70290565 39.67555237 C39.82959769 39.62129837 34.9576019 39.60449017 30.08402061 39.61653137 C28.29449713 39.61432827 26.50493033 39.59838412 24.71566772 39.56774902 C15.63406882 39.00514842 15.63406882 39.00514842 7.60417271 42.23562145 Z " fill="#000000" transform="translate(184.27218627929688,-0.521392822265625)"/>
</svg>
