<?xml version="1.0" encoding="UTF-8"?>
<svg version="1.1" xmlns="http://www.w3.org/2000/svg" width="512" height="512">
<path d="M0 0 C5.05356687 3.12082854 7.90661529 6.46309193 10.234375 11.89453125 C11.1106456 16.08467064 11.34565648 20.03177958 11.30511475 24.30581665 C11.29611649 25.57567413 11.28711823 26.84553162 11.27784729 28.15386963 C11.27063723 28.83217079 11.26342716 29.51047195 11.25599861 30.2093277 C11.2327663 32.39792974 11.21564573 34.58650735 11.20011902 36.775177 C11.18335829 39.1354437 11.16625187 41.49570172 11.14736795 43.8559525 C11.1010835 49.71072383 11.07586494 55.56532114 11.06329346 61.42025757 C11.06054165 62.69767883 11.06054165 62.69767883 11.05773425 64.00090659 C11.05064261 67.51221882 11.04433878 71.02353179 11.03863668 74.53484654 C11.02183111 84.48292173 10.98405361 94.42984787 10.88134766 104.37744141 C10.79977815 112.29074963 10.76449676 120.20275356 10.78286195 128.11648214 C10.79086819 132.29861495 10.7761553 136.47778101 10.7052536 140.65938187 C9.40361175 159.75605697 9.40361175 159.75605697 16.71809769 176.27960777 C19.41162986 178.52788503 22.1663986 180.17918068 25.234375 181.89453125 C27.09282792 183.36329394 28.93104359 184.85859279 30.734375 186.39453125 C31.62125 187.10609375 32.508125 187.81765625 33.421875 188.55078125 C37.21522494 191.7119062 40.79561916 195.0786543 44.3984375 198.453125 C47.74554369 201.57021679 51.16451641 204.53034238 54.734375 207.39453125 C59.49545978 211.21447136 63.94710525 215.28391944 68.3984375 219.453125 C71.74554369 222.57021679 75.16451641 225.53034238 78.734375 228.39453125 C83.49545978 232.21447136 87.94710525 236.28391944 92.3984375 240.453125 C95.74554369 243.57021679 99.16451641 246.53034238 102.734375 249.39453125 C107.49545978 253.21447136 111.94710525 257.28391944 116.3984375 261.453125 C119.74554369 264.57021679 123.16451641 267.53034238 126.734375 270.39453125 C131.49545978 274.21447136 135.94710525 278.28391944 140.3984375 282.453125 C143.74554369 285.57021679 147.16451641 288.53034238 150.734375 291.39453125 C155.49545978 295.21447136 159.94710525 299.28391944 164.3984375 303.453125 C167.74554369 306.57021679 171.16451641 309.53034238 174.734375 312.39453125 C179.4909708 316.21086974 183.9461048 320.26976689 188.38305664 324.4465332 C191.84777347 327.68588578 195.42368899 330.66790563 199.171875 333.58203125 C205.01196542 338.29673199 209.15146008 343.10432902 211.234375 350.39453125 C211.234375 357.43799535 209.93349843 363.45344096 205.234375 368.89453125 C197.59571235 374.91732295 190.23474301 375.04398514 180.82275391 375.09985352 C179.78799927 375.10975311 178.75324463 375.11965271 177.68713379 375.12985229 C174.2784247 375.16135447 170.86970169 375.18618007 167.4609375 375.2109375 C165.0929631 375.23151677 162.7249923 375.2525135 160.35702515 375.27391052 C154.13298457 375.32903068 147.90891139 375.37848426 141.68481445 375.42675781 C135.33021147 375.47704633 128.97565566 375.532694 122.62109375 375.58789062 C110.1588945 375.69534918 97.69665423 375.79682139 85.234375 375.89453125 C85.51310959 376.91571045 85.79184418 377.93688965 86.07902527 378.98901367 C86.44629604 380.3468048 86.81341981 381.70463569 87.18041992 383.0625 C87.36396782 383.73341675 87.54751572 384.4043335 87.73662567 385.09558105 C89.15290989 390.3533418 90.08772576 395.47713707 90.546875 400.89453125 C90.62244629 401.73991455 90.69801758 402.58529785 90.77587891 403.45629883 C92.97045189 431.16081863 83.76194889 456.37590778 66.17578125 477.6328125 C65.53511719 478.37917969 64.89445312 479.12554687 64.234375 479.89453125 C63.47447266 480.78205078 63.47447266 480.78205078 62.69921875 481.6875 C47.31848851 498.24833742 23.86760412 509.72280824 1.26855469 511.0715332 C-30.5928704 511.69886437 -55.58823617 505.75594379 -79.765625 483.89453125 C-97.41246915 466.72534604 -109.26002855 443.13980351 -110.1015625 418.328125 C-110.13097541 415.99624289 -110.14351122 413.66409706 -110.140625 411.33203125 C-110.14046387 410.11 -110.14030273 408.88796875 -110.14013672 407.62890625 C-110.00041436 396.46288384 -109.00707401 384.95504144 -103.765625 374.89453125 C-105.07361557 374.89897247 -106.38160614 374.9034137 -107.72923279 374.9079895 C-120.07326478 374.94858394 -132.41728317 374.9785389 -144.76136684 374.99815559 C-151.10713426 375.00857984 -157.45284765 375.02271432 -163.79858398 375.04541016 C-169.92587373 375.06718685 -176.05311162 375.0791101 -182.18043709 375.08428574 C-184.51472858 375.08797281 -186.84901733 375.09517272 -189.18328667 375.10599136 C-192.46006211 375.12057027 -195.73662492 375.1225065 -199.01342773 375.12158203 C-199.97224854 375.12877258 -200.93106934 375.13596313 -201.91894531 375.14337158 C-210.33533411 375.11778259 -218.09852452 374.47628979 -224.765625 368.89453125 C-230.0842251 361.85097977 -230.77501625 355.55510819 -229.765625 346.89453125 C-227.16393532 339.96380055 -221.50681311 335.76183218 -215.82421875 331.34375 C-212.48444782 328.66937405 -209.37877527 325.82512451 -206.265625 322.89453125 C-201.52823334 318.45492247 -196.6443084 314.30300979 -191.578125 310.23828125 C-188.36712695 307.56244954 -185.31533363 304.75094849 -182.265625 301.89453125 C-177.52696036 297.45620451 -172.64443174 293.30310875 -167.578125 289.23828125 C-164.36712695 286.56244954 -161.31533363 283.75094849 -158.265625 280.89453125 C-153.52696036 276.45620451 -148.64443174 272.30310875 -143.578125 268.23828125 C-140.36712695 265.56244954 -137.31533363 262.75094849 -134.265625 259.89453125 C-129.52696036 255.45620451 -124.64443174 251.30310875 -119.578125 247.23828125 C-116.36712695 244.56244954 -113.31533363 241.75094849 -110.265625 238.89453125 C-105.52696036 234.45620451 -100.64443174 230.30310875 -95.578125 226.23828125 C-92.36712695 223.56244954 -89.31533363 220.75094849 -86.265625 217.89453125 C-81.52696036 213.45620451 -76.64443174 209.30310875 -71.578125 205.23828125 C-68.36712695 202.56244954 -65.31533363 199.75094849 -62.265625 196.89453125 C-57.53894148 192.46742626 -52.67348564 188.32011053 -47.61328125 184.2734375 C-43.59081374 180.91310456 -39.78691609 177.3295965 -36.00390625 173.703125 C-31.97711182 169.89453125 -31.97711182 169.89453125 -29.765625 169.89453125 C-29.77115576 169.08853768 -29.77668652 168.28254412 -29.78238487 167.4521265 C-29.91501445 147.82114375 -30.01423923 128.19025067 -30.07649803 108.55891514 C-30.10740792 99.0652359 -30.14953342 89.57185614 -30.21826172 80.07836914 C-30.27815177 71.80175555 -30.31679499 63.52535889 -30.33015597 55.24853462 C-30.33796357 50.86776902 -30.35625256 46.48762389 -30.40000534 42.10705757 C-30.44089872 37.97911806 -30.45326072 33.85205129 -30.44427109 29.72392845 C-30.44591431 28.21346917 -30.45775037 26.70297903 -30.48085785 25.19269562 C-30.60952116 16.34529714 -30.10314273 9.59930756 -23.765625 2.89453125 C-17.29271618 -2.6344117 -7.84970384 -3.13766411 0 0 Z M-15.203125 210.83203125 C-18.74084557 214.08592324 -22.32602276 217.20314881 -26.078125 220.20703125 C-30.89228088 224.09773833 -35.41486834 228.22453591 -39.92895508 232.45239258 C-44.11856109 236.35421514 -48.48717214 239.96763303 -52.953125 243.55078125 C-56.16412305 246.22661296 -59.21591637 249.03811401 -62.265625 251.89453125 C-67.00428964 256.33285799 -71.88681826 260.48595375 -76.953125 264.55078125 C-80.16412305 267.22661296 -83.21591637 270.03811401 -86.265625 272.89453125 C-91.00428964 277.33285799 -95.88681826 281.48595375 -100.953125 285.55078125 C-104.16412305 288.22661296 -107.21591637 291.03811401 -110.265625 293.89453125 C-115.00428964 298.33285799 -119.88681826 302.48595375 -124.953125 306.55078125 C-128.73923498 309.7058729 -132.31500441 313.06397562 -135.90771484 316.43554688 C-140.27691243 320.51050038 -144.81850706 324.27126972 -149.5234375 327.95703125 C-152.09982985 330.0442757 -152.09982985 330.0442757 -154.765625 333.89453125 C-59.065625 333.89453125 36.634375 333.89453125 135.234375 333.89453125 C131.74360691 329.70560954 129.34131806 326.96242906 125.234375 323.76953125 C120.89417854 320.3043744 116.78313194 316.69474351 112.734375 312.89453125 C108.83903987 309.24522933 104.90098339 305.73750775 100.734375 302.39453125 C95.97329022 298.57459114 91.52164475 294.50514306 87.0703125 290.3359375 C83.72320631 287.21884571 80.30423359 284.25872012 76.734375 281.39453125 C71.97329022 277.57459114 67.52164475 273.50514306 63.0703125 269.3359375 C59.72320631 266.21884571 56.30423359 263.25872012 52.734375 260.39453125 C47.97329022 256.57459114 43.52164475 252.50514306 39.0703125 248.3359375 C35.72320631 245.21884571 32.30423359 242.25872012 28.734375 239.39453125 C24.567703 236.05150371 20.63025508 232.54330808 16.734375 228.89453125 C11.8963799 224.36520753 6.92490383 220.08738184 1.75 215.94140625 C-1.33212834 213.43358754 -4.27872758 210.7941607 -7.20703125 208.109375 C-10.72040299 205.37088224 -12.47357071 208.27716843 -15.203125 210.83203125 Z M-59.2459259 377.29884338 C-59.74742661 378.15542038 -60.24892731 379.01199738 -60.765625 379.89453125 C-61.22066406 380.64992188 -61.67570313 381.4053125 -62.14453125 382.18359375 C-69.51988269 396.73956787 -71.28926867 412.63664858 -67.140625 428.51953125 C-63.57179903 439.13896462 -57.55869431 446.9637752 -49.765625 454.89453125 C-48.91871094 455.76078125 -48.91871094 455.76078125 -48.0546875 456.64453125 C-37.88941413 466.16517753 -23.74437169 470.49047309 -10.078125 470.39453125 C-8.64182739 470.38595093 -8.64182739 470.38595093 -7.17651367 470.37719727 C10.15608702 469.94544499 23.8720607 462.23531425 35.72265625 449.84375 C47.42732324 436.10032297 50.49446774 420.92930422 49.45751953 403.35644531 C48.92751866 397.50903963 47.34378317 392.3699026 45.234375 386.89453125 C44.89790451 385.83645767 44.56143402 384.77838409 44.21476746 383.68824768 C42.64273779 379.92517456 41.26676125 377.65500555 38.234375 374.89453125 C31.50786406 372.60512431 23.90486665 373.38074441 16.91015625 373.546875 C14.79983589 373.55657308 12.68948986 373.56167764 10.57914734 373.56239319 C6.16406893 373.57626869 1.75192344 373.62983482 -2.66235352 373.71459961 C-8.32230462 373.82233928 -13.97951867 373.85547337 -19.64039898 373.86212826 C-23.99433795 373.8712532 -28.34769721 373.90733127 -32.70139503 373.95288277 C-34.78856478 373.97382612 -36.87579731 373.9892585 -38.96304893 373.99909782 C-41.8770753 374.01934075 -44.78854355 374.07284124 -47.7019043 374.13647461 C-48.99631691 374.13778885 -48.99631691 374.13778885 -50.31687927 374.13912964 C-55.32251572 374.27753499 -55.32251572 374.27753499 -59.2459259 377.29884338 Z " fill="#000000" transform="translate(266.765625,1.10546875)"/>
</svg>
