<?xml version="1.0" standalone="no"?>
<!DOCTYPE svg PUBLIC "-//W3C//DTD SVG 20010904//EN"
 "http://www.w3.org/TR/2001/REC-SVG-20010904/DTD/svg10.dtd">
<svg version="1.0" xmlns="http://www.w3.org/2000/svg"
 width="512.000000pt" height="512.000000pt" viewBox="0 0 512.000000 512.000000"
 preserveAspectRatio="xMidYMid meet">

<g transform="translate(0.000000,512.000000) scale(0.100000,-0.100000)"
fill="#000000" stroke="none">
<path d="M3094 4891 c-21 -16 -542 -532 -1156 -1147 -764 -765 -1119 -1128
-1123 -1147 -18 -72 -61 -26 1147 -1233 629 -628 1153 -1147 1165 -1153 15 -7
139 -11 383 -11 399 0 402 1 440 63 19 30 20 53 20 395 0 245 -4 370 -11 385
-6 12 -347 358 -757 769 l-747 748 752 752 c645 646 753 758 758 788 3 19 5
196 3 393 l-3 359 -37 34 -38 34 -378 0 -379 0 -39 -29z m636 -464 l0 -252
-766 -765 c-421 -421 -772 -777 -780 -792 -23 -43 -17 -90 15 -134 16 -21 367
-376 780 -789 l751 -750 0 -252 0 -253 -252 0 -253 0 -1062 1062 -1063 1063
1057 1057 1058 1058 257 0 258 0 0 -253z"/>
</g>
</svg>
