<?xml version="1.0" standalone="no"?>
<!DOCTYPE svg PUBLIC "-//W3C//DTD SVG 20010904//EN"
 "http://www.w3.org/TR/2001/REC-SVG-20010904/DTD/svg10.dtd">
<svg version="1.0" xmlns="http://www.w3.org/2000/svg"
 width="512.000000pt" height="512.000000pt" viewBox="0 0 512.000000 512.000000"
 preserveAspectRatio="xMidYMid meet">

<g transform="translate(0.000000,512.000000) scale(0.100000,-0.100000)"
fill="#000000" stroke="none">
<path d="M827 5104 c-391 -71 -693 -354 -800 -749 l-22 -80 -2 -1674 c-4
-1808 -5 -1757 48 -1914 67 -200 212 -394 378 -506 92 -63 233 -127 337 -153
l89 -23 1700 0 c1620 0 1704 1 1780 19 242 56 472 210 605 405 59 88 125 231
152 331 l23 85 2 1674 c3 1468 2 1686 -12 1764 -69 397 -351 702 -750 810
l-80 22 -1685 1 c-1414 2 -1697 0 -1763 -12z m3437 -404 c113 -29 190 -73 276
-160 87 -86 131 -163 160 -276 20 -75 20 -117 20 -1704 0 -1587 0 -1629 -20
-1704 -28 -111 -73 -189 -160 -276 -86 -87 -162 -131 -276 -160 -75 -20 -117
-20 -1704 -20 -1587 0 -1629 0 -1704 20 -113 29 -190 73 -276 160 -87 86 -131
163 -160 276 -20 75 -20 117 -20 1704 0 1587 0 1629 20 1704 29 113 73 190
160 276 85 86 163 131 272 160 70 18 131 19 1704 19 1592 1 1633 1 1708 -19z"/>
<path d="M2360 4349 c-451 -51 -883 -283 -1173 -628 -460 -548 -556 -1298
-248 -1937 364 -755 1184 -1158 2001 -982 345 74 692 269 926 521 458 494 608
1166 403 1802 -38 117 -141 326 -218 440 -368 550 -1033 858 -1691 784z m482
-419 c279 -58 495 -177 703 -385 129 -129 192 -215 268 -365 100 -200 141
-379 141 -620 0 -299 -73 -540 -239 -790 -64 -97 -268 -301 -365 -365 -396
-263 -868 -316 -1303 -145 -191 74 -352 184 -502 342 -184 192 -299 412 -357
681 -31 146 -31 408 0 554 58 271 174 490 361 685 104 109 195 182 316 251
149 87 342 152 517 176 110 15 346 5 460 -19z"/>
<path d="M1871 2793 c-88 -31 -161 -136 -161 -233 0 -60 30 -130 75 -175 98
-98 252 -98 350 0 188 188 -12 497 -264 408z"/>
<path d="M3071 2793 c-88 -31 -161 -136 -161 -233 0 -132 118 -250 250 -250
60 0 130 30 175 75 188 188 -12 497 -264 408z"/>
</g>
</svg>
