<?xml version="1.0" standalone="no"?>
<!DOCTYPE svg PUBLIC "-//W3C//DTD SVG 20010904//EN"
 "http://www.w3.org/TR/2001/REC-SVG-20010904/DTD/svg10.dtd">
<svg version="1.0" xmlns="http://www.w3.org/2000/svg"
 width="512.000000pt" height="512.000000pt" viewBox="0 0 512.000000 512.000000"
 preserveAspectRatio="xMidYMid meet">

<g transform="translate(0.000000,512.000000) scale(0.100000,-0.100000)"
fill="#000000" stroke="none">
<path d="M2270 5106 c-333 -71 -572 -313 -636 -644 -11 -61 -14 -260 -14
-1125 l0 -1052 -96 -95 c-498 -496 -513 -1278 -32 -1786 186 -196 416 -324
683 -380 123 -26 375 -26 495 0 672 144 1114 769 1016 1436 -42 281 -166 527
-370 730 l-95 94 -3 1086 c-3 977 -5 1090 -20 1140 -33 109 -60 170 -107 242
-114 174 -272 288 -481 345 -78 21 -260 26 -340 9z m314 -424 c91 -42 149
-100 194 -190 l37 -76 5 -1150 5 -1151 23 -38 c13 -20 57 -62 98 -93 429 -323
474 -945 94 -1324 -370 -371 -981 -337 -1304 71 -312 394 -241 952 158 1253
41 31 85 73 98 93 l23 38 5 1150 5 1150 32 67 c40 85 97 147 172 186 78 42
122 52 213 48 61 -3 92 -11 142 -34z"/>
<path d="M2352 4349 c-45 -13 -108 -80 -121 -126 -7 -26 -11 -417 -12 -1208
l0 -1170 -72 -34 c-100 -47 -210 -158 -261 -261 -87 -179 -85 -379 6 -553 42
-81 164 -203 245 -245 133 -70 286 -88 427 -52 113 29 190 73 276 160 151 150
208 340 165 545 -36 169 -163 335 -312 406 l-72 34 -3 1190 -3 1190 -24 38
c-47 76 -151 113 -239 86z m178 -2903 c59 -39 85 -89 85 -166 0 -78 -26 -127
-88 -168 -56 -37 -153 -39 -210 -3 -76 47 -111 140 -88 229 14 51 75 117 123
131 53 16 135 6 178 -23z"/>
<path d="M3631 4393 c-88 -31 -161 -136 -161 -233 0 -132 118 -250 250 -250
60 0 130 30 175 75 188 188 -12 497 -264 408z"/>
<path d="M3631 3593 c-88 -31 -161 -136 -161 -233 0 -132 118 -250 250 -250
60 0 130 30 175 75 188 188 -12 497 -264 408z"/>
<path d="M3631 2793 c-88 -31 -161 -136 -161 -233 0 -132 118 -250 250 -250
60 0 130 30 175 75 188 188 -12 497 -264 408z"/>
</g>
</svg>
