<?xml version="1.0" standalone="no"?>
<!DOCTYPE svg PUBLIC "-//W3C//DTD SVG 20010904//EN"
 "http://www.w3.org/TR/2001/REC-SVG-20010904/DTD/svg10.dtd">
<svg version="1.0" xmlns="http://www.w3.org/2000/svg"
 width="512.000000pt" height="512.000000pt" viewBox="0 0 512.000000 512.000000"
 preserveAspectRatio="xMidYMid meet">

<g transform="translate(0.000000,512.000000) scale(0.100000,-0.100000)"
fill="#000000" stroke="none">
<path d="M2212 5107 c-73 -23 -432 -333 -696 -601 -934 -947 -1355 -1923
-1205 -2796 156 -913 878 -1601 1781 -1699 313 -34 676 24 968 155 62 28 63
28 94 9 150 -90 279 -138 426 -161 223 -33 421 0 635 106 311 155 522 426 597
769 28 127 30 346 5 474 -60 299 -216 593 -483 907 l-73 85 -16 95 c-114 670
-542 1394 -1235 2089 -169 170 -391 369 -545 490 -111 88 -168 106 -253 78z
m201 -557 c530 -463 953 -982 1198 -1470 54 -108 139 -302 139 -317 0 -2 -13
-3 -28 -3 -68 0 -217 -116 -440 -344 -406 -414 -618 -820 -638 -1221 -11 -212
26 -389 121 -580 30 -60 52 -112 47 -116 -11 -12 -171 -56 -264 -74 -672 -127
-1376 243 -1694 890 -315 644 -201 1382 337 2176 182 268 429 560 690 814 141
137 386 355 399 355 4 0 64 -49 133 -110z m1464 -2378 c264 -263 440 -524 516
-767 96 -306 35 -586 -173 -796 -71 -72 -100 -93 -180 -132 -148 -72 -274 -91
-422 -63 -190 37 -358 153 -463 321 -209 336 -131 745 229 1200 78 98 337 365
355 365 5 0 67 -58 138 -128z"/>
</g>
</svg>
