<?xml version="1.0" encoding="UTF-8"?>
<svg version="1.1" xmlns="http://www.w3.org/2000/svg" width="512" height="512">
<path d="M0 0 C1.72733607 -0.00735005 3.45466725 -0.01593899 5.18199158 -0.02566528 C9.84691956 -0.04777899 14.51167041 -0.05081749 19.17664361 -0.04891777 C23.07616995 -0.04879772 26.97565921 -0.0573748 30.87517518 -0.06569529 C40.07110574 -0.08488863 49.26694552 -0.08782627 58.46289062 -0.08105469 C67.9471048 -0.07439977 77.43093146 -0.09734575 86.91506702 -0.13436842 C95.06816833 -0.1650392 103.2211447 -0.17642881 111.37430257 -0.1725316 C116.23977466 -0.17046331 121.10494434 -0.17595749 125.97036171 -0.20042419 C130.53997915 -0.22264863 135.10896309 -0.22084972 139.67858315 -0.20049667 C141.35516856 -0.19708022 143.03179633 -0.20220307 144.70832443 -0.21648026 C146.9970317 -0.23462718 149.2835785 -0.22196172 151.57221985 -0.20153809 C152.85250722 -0.2022506 154.13279459 -0.2029631 155.45187855 -0.2036972 C159.66755846 0.58437455 161.14652547 2.11290757 163.7878418 5.41992188 C164.4519043 7.91992188 164.4519043 7.91992188 164.4128418 10.41992188 C164.42573242 11.24492187 164.43862305 12.06992187 164.4519043 12.91992188 C163.4832389 16.5666622 161.67338538 18.03722709 158.7878418 20.41992188 C155.60805225 21.04519176 155.60805225 21.04519176 151.95185852 21.04570007 C151.27677236 21.05264462 150.6016862 21.05958916 149.90614289 21.06674415 C147.65039254 21.08396861 145.39634739 21.06571978 143.140625 21.04760742 C141.52065712 21.05278717 139.90069504 21.06018789 138.28074646 21.06964111 C134.79444827 21.08520417 131.3086309 21.08503302 127.82232094 21.07263756 C122.30361384 21.05308625 116.78533343 21.06830138 111.26664734 21.08808899 C102.5309364 21.11524638 93.79539923 21.1187296 85.05965441 21.11231595 C69.4346825 21.10138905 53.80976413 21.12607051 38.18484563 21.16606361 C32.70569887 21.17909668 27.22671163 21.18041559 21.74755728 21.17193067 C18.32838689 21.16828942 14.90925671 21.17262506 11.49009132 21.17877197 C9.91236724 21.17985168 8.33463632 21.17752912 6.75692368 21.17142677 C-5.87951134 21.12492565 -18.10355356 21.16112732 -28.0012207 30.02148438 C-36.59810299 39.29595344 -36.36210869 50.85047199 -36.35742188 62.8059082 C-36.36078049 64.03932449 -36.3641391 65.27274078 -36.36759949 66.54353333 C-36.3754482 69.91147036 -36.37877568 73.27934571 -36.37941527 76.64728761 C-36.38012838 78.7561858 -36.38226764 80.86507762 -36.38491249 82.97397423 C-36.39415104 90.34471418 -36.39824927 97.7154361 -36.39746094 105.08618164 C-36.39686062 111.93498657 -36.40740723 118.78371262 -36.4232046 125.63249761 C-36.43632033 131.53083914 -36.44164314 137.42915502 -36.44100553 143.32751101 C-36.44075172 146.84220228 -36.44353797 150.35682339 -36.45418358 153.87150002 C-36.46574795 157.79628143 -36.46109313 161.72095633 -36.45507812 165.64575195 C-36.46350739 167.37066864 -36.46350739 167.37066864 -36.47210693 169.13043213 C-36.43255125 179.32131479 -35.59092597 189.09979001 -29.2121582 197.41992188 C-20.57342607 205.77175884 -11.74497583 207.54187136 0.05560017 207.54855633 C0.75629107 207.55030937 1.45698197 207.5520624 2.17890593 207.55386856 C4.52043912 207.5585104 6.86190971 207.55606776 9.20344543 207.55363464 C10.90177816 207.55550353 12.60011045 207.55780454 14.29844207 207.56049997 C18.96077381 207.56661474 23.62308761 207.56648475 28.28542244 207.56530559 C33.31553367 207.5651015 38.34563914 207.57062109 43.37574768 207.57536316 C53.22879281 207.58366841 63.08183196 207.58641794 72.93488029 207.58697554 C80.94378243 207.58745074 88.95268258 207.58950569 96.96158409 207.59267616 C119.66863312 207.60148223 142.37567743 207.60609559 165.08272818 207.60534569 C166.91881387 207.60528575 166.91881387 207.60528575 168.79199219 207.60522461 C170.63031969 207.60516329 170.63031969 207.60516329 172.50578513 207.60510073 C192.3702284 207.60469423 212.23465271 207.61426496 232.09909049 207.62836298 C252.49608557 207.64272474 272.8930714 207.64963328 293.29007167 207.6487692 C304.7413152 207.64843717 316.19253887 207.65118688 327.64377785 207.66194725 C337.39298552 207.67104959 347.14216431 207.67322967 356.89137439 207.66643783 C361.86471151 207.66317135 366.83799321 207.66312062 371.81132507 207.67179108 C376.36672739 207.6796512 380.9220303 207.67822959 385.47743019 207.66950694 C387.12274509 207.6679709 388.76806739 207.66979207 390.41337357 207.67536702 C408.1056756 207.81228404 408.1056756 207.81228404 423.7878418 200.41992188 C433.62664363 190.24314594 433.93837776 179.48284846 433.93310547 166.03393555 C433.93646408 164.80051926 433.93982269 163.56710297 433.94328308 162.29631042 C433.9511318 158.92837339 433.95445928 155.56049804 433.95509887 152.19255614 C433.95581198 150.08365795 433.95795123 147.97476613 433.96059608 145.86586952 C433.96983464 138.49512957 433.97393286 131.12440765 433.97314453 123.75366211 C433.97254421 116.90485718 433.98309083 110.05613113 433.99888819 103.20734614 C434.01200393 97.30900461 434.01732674 91.41068873 434.01668912 85.51233274 C434.01643531 81.99764147 434.01922156 78.48302036 434.02986717 74.96834373 C434.04143154 71.04356232 434.03677672 67.11888742 434.03076172 63.1940918 C434.03638123 62.04414734 434.04200073 60.89420288 434.04779053 59.70941162 C434.0046208 48.58742883 432.86997198 38.21410632 425.1862793 29.63085938 C417.38512468 22.39965212 408.01811361 21.29499446 397.67770386 21.29534912 C396.99738102 21.29393897 396.31705818 21.29252882 395.6161195 21.29107594 C393.35546784 21.28745024 391.09487999 21.29074753 388.83422852 21.29394531 C387.20586091 21.29254921 385.57749368 21.29064902 383.9491272 21.2882843 C380.45209334 21.28380069 376.95507117 21.28193152 373.45803452 21.2818222 C367.92805778 21.28067896 362.39814735 21.26782114 356.86819458 21.2522583 C355.93382533 21.24968545 354.99945608 21.24711259 354.03677261 21.24446177 C352.12682973 21.23919582 350.2168869 21.23391034 348.30694413 21.22860575 C335.43907503 21.19351617 322.57129012 21.16694922 309.70336914 21.16943359 C301.01316668 21.17102115 292.32319191 21.15501639 283.63306248 21.11872697 C279.03694408 21.10025883 274.44120599 21.09093217 269.84505844 21.10320282 C265.52576994 21.1146243 261.20716378 21.10297218 256.88796616 21.07356834 C255.30331659 21.06691972 253.71860472 21.06880841 252.1339798 21.07986641 C249.96983942 21.09371595 247.80801033 21.07687508 245.64401245 21.0524292 C244.43357206 21.05096264 243.22313168 21.04949608 241.97601128 21.04798508 C237.87303908 20.23970751 236.3797106 18.62967682 233.7878418 15.41992188 C233.1237793 12.91992188 233.1237793 12.91992188 233.1628418 10.41992188 C233.14995117 9.59492188 233.13706055 8.76992188 233.1237793 7.91992188 C234.09575428 4.26072195 235.8811982 2.80130517 238.7878418 0.41992188 C242.11821842 -0.20649052 242.11821842 -0.20649052 245.99000549 -0.20826721 C247.06177132 -0.21890879 247.06177132 -0.21890879 248.15518898 -0.22976536 C250.54443973 -0.24733779 252.93206187 -0.2292458 255.32128906 -0.21118164 C257.03653198 -0.21632111 258.75176962 -0.22360261 260.46699524 -0.23286438 C265.12457968 -0.25139291 269.78159224 -0.2384268 274.43915296 -0.21877408 C279.3209278 -0.20237971 284.20266661 -0.21120244 289.0844574 -0.21629333 C297.2901216 -0.22081641 305.49555805 -0.20493861 313.70117188 -0.17700195 C323.16636965 -0.14502381 332.63115495 -0.1449361 342.09638172 -0.16221672 C351.21763144 -0.17813156 360.33873105 -0.17131162 369.45997429 -0.15427971 C373.33249889 -0.14743546 377.20490222 -0.14841482 381.077425 -0.15582466 C385.65025168 -0.16353641 390.22261463 -0.1512032 394.79536247 -0.12397575 C396.46575927 -0.11713893 398.13619978 -0.1169429 399.80659485 -0.12419128 C416.01600352 -0.18637532 429.29126061 3.42457491 441.5378418 14.60742188 C452.48643036 26.34557212 455.2478707 39.44710457 455.19189453 54.95068359 C455.19760832 56.39080328 455.20457645 57.83091845 455.21269226 59.27102661 C455.23052872 63.15547997 455.22947323 67.03970625 455.22374988 70.92418814 C455.22064381 74.17935509 455.22676624 77.43447932 455.23278862 80.68964016 C455.24680136 88.37564964 455.24530008 96.06154789 455.23388672 103.74755859 C455.22241189 111.64905452 455.2364778 119.55021077 455.26328319 127.45166194 C455.28551093 134.26136074 455.29206161 141.07095346 455.28620678 147.88068593 C455.28285247 151.93647918 455.28514969 155.99205485 455.30245781 160.04781723 C455.31803807 163.86476749 455.31385035 167.68121855 455.29515266 171.49814987 C455.291497 172.88959159 455.2944858 174.28107122 455.30503845 175.67247772 C455.41257121 191.03795814 451.05433701 203.72152224 440.6003418 215.16992188 C427.86672318 227.04701906 413.83132925 228.8708385 397.26565552 228.80760193 C395.48366011 228.8117786 393.70166736 228.81725794 391.91967952 228.82392174 C387.03990718 228.8383513 382.16030409 228.83413939 377.28052258 228.82675493 C372.01114656 228.82201941 366.74180694 228.83453652 361.47244263 228.84477234 C351.15589996 228.86195814 340.83941821 228.86280079 330.52286495 228.85755944 C322.13647191 228.85351609 313.75009686 228.85496326 305.36370468 228.86030769 C303.57249996 228.86143033 303.57249996 228.86143033 301.74510928 228.86257564 C299.31912939 228.86410713 296.89314951 228.86564548 294.46716963 228.86719061 C271.72276896 228.88091487 248.9784027 228.87547848 226.23400281 228.86400539 C205.43342899 228.85407319 184.63294411 228.86701364 163.83238401 228.89093959 C142.46572575 228.91533122 121.09910892 228.92493829 99.73243701 228.91828686 C87.74012787 228.91479478 75.74788714 228.91702603 63.75558853 228.93453789 C53.54681158 228.94926062 43.33815121 228.94989429 33.12937655 228.93246698 C27.9228123 228.92395527 22.71645633 228.92181176 17.50990295 228.93711853 C12.73914744 228.95097024 7.96877853 228.94619609 3.19804536 228.92687929 C1.47674354 228.92312049 -0.24458927 228.92603779 -1.96586345 228.93649095 C-18.29334181 229.02855718 -31.61506269 225.50705252 -43.9621582 214.23242188 C-54.91074677 202.49427163 -57.6721871 189.39273918 -57.61621094 173.88916016 C-57.62192473 172.44904047 -57.62889286 171.0089253 -57.63700867 169.56881714 C-57.65484513 165.68436378 -57.65378964 161.8001375 -57.64806628 157.91565561 C-57.64496021 154.66048866 -57.65108264 151.40536443 -57.65710503 148.15020359 C-57.67111776 140.46419411 -57.66961649 132.77829586 -57.65820312 125.09228516 C-57.64672829 117.19078923 -57.6607942 109.28963298 -57.6875996 101.38818181 C-57.70982734 94.57848301 -57.71637802 87.76889029 -57.71052319 80.95915782 C-57.70716887 76.90336457 -57.70946609 72.8477889 -57.72677422 68.79202652 C-57.74235447 64.97507626 -57.73816676 61.1586252 -57.71946907 57.34169388 C-57.7158134 55.95025216 -57.7188022 54.55877253 -57.72935486 53.16736603 C-57.83688762 37.80188561 -53.47865341 25.11832151 -43.0246582 13.66992188 C-30.40034835 1.89478084 -16.43865278 -0.03319129 0 0 Z " fill="#000000" transform="translate(57.212158203125,283.580078125)"/>
<path d="M0 0 C0.92975647 0.00182281 1.85951294 0.00364563 2.81744385 0.00552368 C16.2004903 0.04974492 29.26651554 0.3659161 42.375 3.3125 C43.2103125 3.49474121 44.045625 3.67698242 44.90625 3.86474609 C82.2845944 12.18726809 116.98624244 29.17474421 145.1640625 55.30078125 C147.09241927 57.05538149 149.0708089 58.64880737 151.125 60.25 C157.79631803 65.92771747 161.82973864 74.39982215 162.625 83.0234375 C163.00702352 92.31138438 161.1414766 100.32791706 155.1875 107.625 C147.77850676 115.3347857 140.12802509 119.21049044 129.5 119.625 C117.16062755 119.3032679 109.9515327 113.65429026 101.25 105.5625 C69.05269382 76.02246806 28.35950628 65.37913087 -14.52276611 67.18811035 C-49.24013637 69.2423449 -78.63260378 86.86272167 -104.14160156 109.02490234 C-112.33471516 116.13656809 -119.98892321 120.01236809 -131.1171875 119.59375 C-141.61748871 118.41614613 -149.71859479 113.56346225 -156.3046875 105.33984375 C-161.47403459 97.402296 -162.9005056 88.61814523 -161.625 79.3125 C-158.3169434 67.61464879 -151.62982486 60.91032097 -142.625 53.3125 C-141.201875 52.05759766 -141.201875 52.05759766 -139.75 50.77734375 C-127.2042436 39.78117265 -113.36269917 31.07594996 -98.625 23.3125 C-97.98965332 22.97508789 -97.35430664 22.63767578 -96.69970703 22.29003906 C-77.80451603 12.41114553 -56.67837128 5.62428934 -35.625 2.3125 C-34.06289795 2.0508606 -34.06289795 2.0508606 -32.46923828 1.78393555 C-21.6297396 0.1301663 -10.94512968 -0.04445081 0 0 Z M-134.625 75.3125 C-135.54152344 76.15296875 -136.45804688 76.9934375 -137.40234375 77.859375 C-140.2722007 81.02680938 -140.58337591 82.96204054 -140.82421875 87.09765625 C-140.49908856 90.71233892 -139.01830925 92.66726346 -136.625 95.3125 C-133.88481924 97.4758006 -132.13847849 98.23602448 -128.6875 98.75 C-122.64240484 97.88641498 -118.54820414 93.4317376 -114.3125 89.3125 C-92.60596588 68.87525216 -65.36852926 56.24400236 -36.625 49.3125 C-35.90038574 49.13315918 -35.17577148 48.95381836 -34.42919922 48.76904297 C-12.28896736 43.55866356 15.32431718 43.87736853 37.375 49.3125 C38.1882373 49.50585938 39.00147461 49.69921875 39.83935547 49.8984375 C70.53320122 57.38558677 97.21305015 72.24860978 119.921875 94.1328125 C123.0325009 96.89671258 125.13811616 98.15116733 129.25 98.6875 C134.17821063 98.09611472 137.07421996 95.78112263 140.3125 92.125 C141.86171064 88.0241483 141.46999762 84.52696239 140.375 80.3125 C138.89409907 77.81301963 137.02033762 76.00336903 134.875 74.0625 C134.30185059 73.51948242 133.72870117 72.97646484 133.13818359 72.41699219 C66.01197027 10.2425661 -38.81342994 3.47276466 -134.625 75.3125 Z " fill="#000000" transform="translate(255.625,-0.3125)"/>
<path d="M0 0 C0.78117188 0.61746094 1.56234375 1.23492187 2.3671875 1.87109375 C10.47010971 8.49102831 15.31133766 16.35606873 16.75 26.75 C17.52019419 36.0763515 15.14480053 44.73816103 9.34765625 52.09765625 C2.86678522 59.18817977 -4.27803266 63.07900464 -13.97192383 63.53930664 C-26.08578898 63.6737008 -33.12859182 60.08245945 -42.21484375 52.3125 C-56.51671118 40.4377377 -71.72916845 36.60919462 -90 38 C-103.53590142 40.26736593 -113.83959334 46.69407764 -123.6796875 55.98046875 C-131.26572775 62.58313341 -139.45448299 63.47152838 -149.16796875 63.2734375 C-158.31209754 62.62095125 -164.7947663 58.57837693 -171 52 C-176.84355135 45.1602198 -178.88126362 37.94480701 -179 29 C-177.87647346 17.19405447 -172.42619809 8.5866295 -163.50390625 1.01171875 C-147.9401652 -11.49269099 -131.34459745 -20.78816414 -112 -26 C-111.34161133 -26.17789063 -110.68322266 -26.35578125 -110.00488281 -26.5390625 C-71.44187121 -36.35014672 -30.07763137 -25.09262004 0 0 Z M-153 21 C-156.86043507 25.42791089 -156.86043507 25.42791089 -158 31 C-156.39907617 36.06959213 -154.73974733 39.42405036 -150 42 C-146.74455271 42.93200306 -144.26447985 42.92257039 -141 42 C-138.05335386 40.02103942 -135.48354857 37.81167747 -132.83203125 35.453125 C-114.88831066 19.91015047 -93.14439594 15.46709655 -70 17 C-53.490906 19.16863834 -38.70967542 26.99434089 -26.375 37.9375 C-22.99663117 40.75682349 -20.64857674 42.62840782 -16.1875 42.875 C-11.44533737 42.32259754 -9.114829 40.57065763 -6 37 C-4.14557257 32.99443676 -3.77819148 30.92135847 -4.8125 26.625 C-12.75830613 11.31312467 -33.32512003 1.39249805 -49.06738281 -3.6640625 C-85.57864368 -14.57428324 -125.9916239 -6.71646087 -153 21 Z " fill="#000000" transform="translate(337,120)"/>
<path d="M0 0 C2.875 1.25 2.875 1.25 5 4 C8.10794909 13.6080794 9.6802848 23.85871016 11.6875 33.75 C12.01082797 35.33338231 12.33439411 36.916716 12.65820312 38.5 C13.4415429 42.33277965 14.22167822 46.16619834 15 50 C15.16429001 49.44733963 15.32858002 48.89467926 15.49784851 48.32527161 C17.21498035 42.5604799 18.95440973 36.80275727 20.70678711 31.04858398 C21.35736031 28.90187058 22.00227882 26.75343485 22.64135742 24.60327148 C23.5623879 21.50812244 24.50375615 18.41979198 25.44921875 15.33203125 C25.72964523 14.37351761 26.01007172 13.41500397 26.29899597 12.42744446 C27.98537738 7.00189475 29.47206846 3.53025171 34 0 C36.5 -0.69921875 36.5 -0.69921875 39 -0.6875 C39.825 -0.71199219 40.65 -0.73648437 41.5 -0.76171875 C45.33486456 0.40671655 47.08555646 2.63400021 49 6 C50.77051882 10.37881903 52.14038109 14.85414703 53.5 19.375 C54.04720703 21.13650391 54.04720703 21.13650391 54.60546875 22.93359375 C55.54416191 25.96046747 56.47074 28.99074833 57.39404297 32.02233887 C58.5079042 35.65764624 59.64528574 39.28561327 60.78125 42.9140625 C61.00228394 43.6204184 61.22331787 44.32677429 61.4510498 45.05453491 C61.96708812 46.70311045 62.48350057 48.35156887 63 50 C63.10387024 49.45986771 63.20774048 48.91973541 63.3147583 48.36323547 C64.40090594 42.73059282 65.50732839 37.10220334 66.62548828 31.47583008 C67.03986105 29.37691374 67.44909282 27.27697553 67.85302734 25.17602539 C68.43531869 22.15225941 69.03614024 19.13267853 69.640625 16.11328125 C69.81684387 15.17664139 69.99306274 14.24000153 70.17462158 13.27497864 C71.20488589 8.23183426 72.19181264 4.71744906 76 1 C79.48881426 -0.74440713 83.19333176 -0.56541186 87 0 C90 2 90 2 92 5 C93.09295109 10.70357377 92.89024896 15.46159372 91.72412109 21.15673828 C91.57624146 21.92855438 91.42836182 22.70037048 91.27600098 23.49557495 C90.78791268 26.02317396 90.28161599 28.54668184 89.7734375 31.0703125 C89.42470171 32.83801406 89.07653582 34.60582814 88.72891235 36.37374878 C87.99912841 40.06878126 87.25980428 43.76175006 86.51416016 47.45361328 C85.56179579 52.17492198 84.6375493 56.90124155 83.72089195 61.6295948 C83.00959507 65.27824578 82.28135833 68.92336182 81.54823685 72.56768417 C81.20049475 74.30880101 80.85845776 76.05106775 80.52235031 77.79446793 C80.0497805 80.23422056 79.55401237 82.66815892 79.05224609 85.10205078 C78.91903961 85.81596985 78.78583313 86.52988892 78.64859009 87.26544189 C77.53254059 92.49508597 75.64036385 95.25444724 72 99 C69.60961794 100.19519103 67.91758604 100.26991328 65.25 100.375 C64.40953125 100.42398438 63.5690625 100.47296875 62.703125 100.5234375 C58.79957747 99.76754824 56.41427977 98.06067554 54 95 C52.296046 91.48957039 51.1821205 87.85706833 50.0625 84.125 C49.76666016 83.19558594 49.47082031 82.26617187 49.16601562 81.30859375 C48.31466642 78.61177328 47.48556605 75.90913792 46.66680908 73.20227051 C45.84367959 70.48372056 45.01531223 67.7667835 44.18701172 65.04980469 C42.45518706 59.36739242 40.72668571 53.68397572 39 48 C38.82540253 48.57771652 38.65080505 49.15543304 38.47091675 49.75065613 C36.64533275 55.77675619 34.79137624 61.7935954 32.92089844 67.8059082 C32.22709404 70.04911191 31.54049034 72.29455617 30.86132812 74.54223633 C29.88226991 77.77785197 28.87736436 81.00445296 27.8671875 84.23046875 C27.57004852 85.23272995 27.27290955 86.23499115 26.96676636 87.2676239 C25.04929578 93.28236365 23.37347924 96.55987647 18 100 C15.4375 100.6640625 15.4375 100.6640625 13 100.625 C11.7934375 100.64433594 11.7934375 100.64433594 10.5625 100.6640625 C6.93886278 99.72501017 4.45930891 97.74410274 2 95 C0.65400696 91.56309509 0.65400696 91.56309509 -0.1706543 87.66772461 C-0.32560458 86.96632071 -0.48055487 86.26491682 -0.64020061 85.54225826 C-1.11557534 83.3655395 -1.55889059 81.18388615 -2 79 C-2.2798745 77.69595063 -2.56167733 76.3923133 -2.84561157 75.08914185 C-3.68410075 71.17075785 -4.48427765 67.24570278 -5.26953125 63.31640625 C-5.41053442 62.61416365 -5.55153759 61.91192104 -5.69681358 61.18839836 C-6.43924262 57.48950222 -7.17708584 53.78972805 -7.91088867 50.08911133 C-8.66340337 46.29898182 -9.43214671 42.51232902 -10.20441151 38.72618198 C-10.80277255 35.7775323 -11.38910659 32.82658141 -11.97226524 29.87489128 C-12.25047018 28.4775055 -12.53309085 27.0809905 -12.82044411 25.68545723 C-14.3649913 18.16275651 -15.59754771 11.57981189 -14 4 C-10.27728591 -0.76972743 -5.64146437 -0.94366313 0 0 Z " fill="#000000" transform="translate(135,348)"/>
<path d="M0 0 C0.87315353 -0.00570007 1.74630707 -0.01140015 2.6459198 -0.01727295 C4.49611192 -0.02672845 6.34632093 -0.03325911 8.1965332 -0.03710938 C11.02129719 -0.04680065 13.84532919 -0.07781255 16.66992188 -0.109375 C18.4674436 -0.11590652 20.26497052 -0.12115641 22.0625 -0.125 C22.90537064 -0.1373468 23.74824127 -0.1496936 24.61665344 -0.16241455 C29.32121088 -0.14463257 32.40230124 0.15770635 36.23046875 3.203125 C38.75654 6.85023379 38.36214517 9.84527662 37.77734375 14.078125 C37.00971355 17.06091664 35.72123738 18.44493538 33.23046875 20.203125 C30.11203625 21.2426025 27.95571289 21.31807338 24.6875 21.30078125 C23.61435547 21.29755859 22.54121094 21.29433594 21.43554688 21.29101562 C20.31599609 21.28263672 19.19644531 21.27425781 18.04296875 21.265625 C16.91181641 21.26111328 15.78066406 21.25660156 14.61523438 21.25195312 C11.82028999 21.24016011 9.02537276 21.22222457 6.23046875 21.203125 C6.23046875 27.143125 6.23046875 33.083125 6.23046875 39.203125 C8.63392578 39.13351562 8.63392578 39.13351562 11.0859375 39.0625 C13.19659593 39.02497718 15.30727453 38.98857757 17.41796875 38.953125 C19.00061523 38.90285156 19.00061523 38.90285156 20.61523438 38.8515625 C28.47337288 38.75240618 28.47337288 38.75240618 32.40625 41.09375 C35.48943581 44.65888991 35.62290644 47.34986422 35.5859375 51.94140625 C35.01719053 55.56013699 33.07881263 57.08342723 30.23046875 59.203125 C27.28914984 60.18356464 25.4054521 60.31933702 22.34375 60.30078125 C21.40595703 60.29755859 20.46816406 60.29433594 19.50195312 60.29101562 C18.03725586 60.27844727 18.03725586 60.27844727 16.54296875 60.265625 C15.06086914 60.25885742 15.06086914 60.25885742 13.54882812 60.25195312 C11.10931401 60.24016803 8.66992186 60.22371511 6.23046875 60.203125 C6.2461792 61.14631592 6.26188965 62.08950684 6.27807617 63.0612793 C6.32932882 66.57435648 6.36687866 70.08703398 6.39526367 73.6003418 C6.41031228 75.11830938 6.43075613 76.63623376 6.45678711 78.15405273 C6.49334528 80.34109177 6.51023398 82.52755396 6.5234375 84.71484375 C6.53914795 86.02928467 6.5548584 87.34372559 6.57104492 88.69799805 C6.13007298 93.2363738 4.60009241 95.73204774 1.54296875 99.015625 C-1.85317926 100.7595929 -5.07995285 100.88394006 -8.76953125 100.203125 C-11.57956585 98.40948589 -13.27893593 97.18431565 -14.76953125 94.203125 C-14.88360732 91.45322349 -14.93737699 88.72806777 -14.9465332 85.97729492 C-14.9531044 85.12672012 -14.9596756 84.27614532 -14.96644592 83.39979553 C-14.98619821 80.57772743 -14.99784564 77.75571258 -15.0078125 74.93359375 C-15.01188803 73.97080317 -15.01596355 73.00801258 -15.02016258 72.01604652 C-15.04103129 66.9204492 -15.05532969 61.82487888 -15.06469727 56.72924805 C-15.07576501 51.46313596 -15.11016687 46.19744604 -15.14986897 40.93148327 C-15.17600048 36.88486438 -15.18438601 32.83834662 -15.18797874 28.79165077 C-15.19285347 26.85036683 -15.20449257 24.90908766 -15.22301674 22.96788597 C-15.24733516 20.25062887 -15.24645664 17.53447102 -15.23950195 14.81713867 C-15.25231201 14.01539215 -15.26512207 13.21364563 -15.27832031 12.38760376 C-15.24311176 8.61298606 -14.92022689 6.43861011 -12.86515808 3.22724915 C-8.9567819 -0.54777343 -5.1665939 0.02586438 0 0 Z " fill="#000000" transform="translate(309.76953125,347.796875)"/>
<path d="M0 0 C7.28509746 6.13043332 11.28565021 13.58727368 12.33984375 23.05078125 C12.66794416 33.37938217 9.84485245 42.15485597 3 50 C-6.96493091 58.50664834 -16.31582083 59.98240211 -29 59 C-37.37719389 57.16885945 -44.08911375 52.42023468 -48.79296875 45.27734375 C-53.92946471 36.21222143 -55.56709951 27.43623653 -53.38671875 17.08984375 C-50.31335586 7.46358377 -44.80349787 1.16364467 -35.875 -3.5 C-23.61268844 -9.35468456 -11.12414009 -7.46322958 0 0 Z M-29 17 C-31.46086583 19.6501632 -32.87266561 21.55602797 -33.1953125 25.21484375 C-32.95071598 29.53844687 -32.34858585 31.57097126 -29.5625 35 C-25.44139052 38.21647569 -22.13696224 38.53345377 -17 38 C-13.45721462 36.58288585 -12.25859672 35.40127078 -10.1875 32.1875 C-8.89372042 28.71472323 -8.46558095 26.66458779 -9 23 C-11.47427701 18.14661047 -13.90302031 15.91136739 -19 14 C-23.47038145 14 -25.24779819 14.65487387 -29 17 Z " fill="#000000" transform="translate(277,189)"/>
<path d="M0 0 C2.75569447 2.18159145 4.43588747 3.87177494 6 7 C6.1139818 9.68361263 6.16783634 12.34187279 6.17700195 15.02636719 C6.18357315 15.85582855 6.19014435 16.68528992 6.19691467 17.53988647 C6.21666786 20.29221686 6.22831544 23.04449259 6.23828125 25.796875 C6.24235678 26.73635231 6.2464323 27.67582962 6.25063133 28.64377594 C6.27150181 33.61733278 6.28579866 38.59086195 6.29516602 43.56445312 C6.30622576 48.70043552 6.34061785 53.83598409 6.38033772 58.9718132 C6.40649312 62.92153729 6.41485695 66.87115792 6.41844749 70.820961 C6.42331712 72.7139707 6.43494179 74.60697568 6.45348549 76.49990082 C6.47785164 79.15230062 6.47691654 81.80357706 6.4699707 84.45605469 C6.48278076 85.23550446 6.49559082 86.01495422 6.50878906 86.81802368 C6.45966784 91.97486147 5.39651215 94.90189796 2 99 C-1.45739557 100.72869779 -5.21975568 100.48966895 -9 100 C-11.87029869 98.20606332 -13.49131638 97.01736724 -15 94 C-15.11407607 91.25009849 -15.16784574 88.52494277 -15.17700195 85.77416992 C-15.18357315 84.92359512 -15.19014435 84.07302032 -15.19691467 83.19667053 C-15.21666696 80.37460243 -15.22831439 77.55258758 -15.23828125 74.73046875 C-15.24235678 73.76767817 -15.2464323 72.80488758 -15.25063133 71.81292152 C-15.27150004 66.7173242 -15.28579844 61.62175388 -15.29516602 56.52612305 C-15.30623376 51.26001096 -15.34063562 45.99432104 -15.38033772 40.72835827 C-15.40646923 36.68173938 -15.41485476 32.63522162 -15.41844749 28.58852577 C-15.42332222 26.64724183 -15.43496132 24.70596266 -15.45348549 22.76476097 C-15.47780391 20.04750387 -15.47692539 17.33134602 -15.4699707 14.61401367 C-15.48278076 13.81226715 -15.49559082 13.01052063 -15.50878906 12.18447876 C-15.47358051 8.40986106 -15.15069564 6.23548511 -13.09562683 3.02412415 C-9.23052985 -0.70909592 -5.18001082 -0.82307598 0 0 Z " fill="#000000" transform="translate(386,348)"/>
<path d="M0 0 C2.75569447 2.18159145 4.43588747 3.87177494 6 7 C6.1139818 9.68361263 6.16783634 12.34187279 6.17700195 15.02636719 C6.18357315 15.85582855 6.19014435 16.68528992 6.19691467 17.53988647 C6.21666786 20.29221686 6.22831544 23.04449259 6.23828125 25.796875 C6.24235678 26.73635231 6.2464323 27.67582962 6.25063133 28.64377594 C6.27150181 33.61733278 6.28579866 38.59086195 6.29516602 43.56445312 C6.30622576 48.70043552 6.34061785 53.83598409 6.38033772 58.9718132 C6.40649312 62.92153729 6.41485695 66.87115792 6.41844749 70.820961 C6.42331712 72.7139707 6.43494179 74.60697568 6.45348549 76.49990082 C6.47785164 79.15230062 6.47691654 81.80357706 6.4699707 84.45605469 C6.48278076 85.23550446 6.49559082 86.01495422 6.50878906 86.81802368 C6.45966784 91.97486147 5.39651215 94.90189796 2 99 C-1.45739557 100.72869779 -5.21975568 100.48966895 -9 100 C-11.87029869 98.20606332 -13.49131638 97.01736724 -15 94 C-15.11407607 91.25009849 -15.16784574 88.52494277 -15.17700195 85.77416992 C-15.18357315 84.92359512 -15.19014435 84.07302032 -15.19691467 83.19667053 C-15.21666696 80.37460243 -15.22831439 77.55258758 -15.23828125 74.73046875 C-15.24235678 73.76767817 -15.2464323 72.80488758 -15.25063133 71.81292152 C-15.27150004 66.7173242 -15.28579844 61.62175388 -15.29516602 56.52612305 C-15.30623376 51.26001096 -15.34063562 45.99432104 -15.38033772 40.72835827 C-15.40646923 36.68173938 -15.41485476 32.63522162 -15.41844749 28.58852577 C-15.42332222 26.64724183 -15.43496132 24.70596266 -15.45348549 22.76476097 C-15.47780391 20.04750387 -15.47692539 17.33134602 -15.4699707 14.61401367 C-15.48278076 13.81226715 -15.49559082 13.01052063 -15.50878906 12.18447876 C-15.47358051 8.40986106 -15.15069564 6.23548511 -13.09562683 3.02412415 C-9.23052985 -0.70909592 -5.18001082 -0.82307598 0 0 Z " fill="#000000" transform="translate(266,348)"/>
<path d="M0 0 C3.125 1.875 3.125 1.875 5 5 C5.98876625 10.02622846 5.7769173 13.70513784 3.125 18.125 C-1.29486216 20.7769173 -4.97377154 20.98876625 -10 20 C-13.125 18.125 -13.125 18.125 -15 15 C-15.98876625 9.97377154 -15.7769173 6.29486216 -13.125 1.875 C-8.70513784 -0.7769173 -5.02622846 -0.98876625 0 0 Z " fill="#000000" transform="translate(261,284)"/>
</svg>
