<?xml version="1.0" standalone="no"?>
<!DOCTYPE svg PUBLIC "-//W3C//DTD SVG 20010904//EN"
 "http://www.w3.org/TR/2001/REC-SVG-20010904/DTD/svg10.dtd">
<svg version="1.0" xmlns="http://www.w3.org/2000/svg"
 width="512.000000pt" height="512.000000pt" viewBox="0 0 512.000000 512.000000"
 preserveAspectRatio="xMidYMid meet">

<g transform="translate(0.000000,512.000000) scale(0.100000,-0.100000)"
fill="#000000" stroke="none">
<path d="M615 5031 c-81 -36 -226 -227 -292 -384 -141 -334 -113 -705 77
-1013 58 -95 166 -215 214 -238 80 -38 195 -7 243 65 63 96 52 169 -47 288
-75 91 -129 191 -156 291 -23 86 -23 252 -1 340 26 98 88 216 162 304 70 84
80 106 78 177 -3 136 -152 227 -278 170z"/>
<path d="M1491 5039 c-72 -22 -217 -203 -292 -365 -22 -47 -52 -129 -67 -182
-23 -88 -26 -114 -26 -277 0 -163 3 -189 27 -278 60 -223 227 -486 342 -538
102 -47 220 -4 266 96 38 83 18 157 -71 260 -111 129 -159 252 -167 425 -5 96
-2 129 15 198 27 106 71 195 133 269 96 115 104 130 104 202 0 78 -25 128 -85
167 -43 29 -125 39 -179 23z"/>
<path d="M3492 5039 c-47 -14 -109 -79 -123 -131 -23 -88 -5 -136 100 -261
207 -247 201 -636 -15 -887 -94 -108 -114 -181 -75 -265 46 -100 164 -143 266
-96 75 34 197 190 271 345 66 140 95 262 101 426 10 260 -52 473 -198 680
-124 176 -207 223 -327 189z"/>
<path d="M4350 5034 c-74 -32 -121 -98 -123 -173 -2 -70 8 -92 77 -176 106
-127 156 -239 176 -389 26 -192 -33 -382 -171 -547 -49 -60 -71 -96 -79 -130
-29 -121 66 -239 193 -239 71 0 105 19 180 101 377 406 375 1060 -4 1473 -82
90 -165 117 -249 80z"/>
<path d="M2410 4795 c-207 -58 -353 -200 -426 -415 -14 -41 -19 -84 -19 -165
0 -136 26 -225 97 -332 60 -89 131 -152 225 -201 l73 -37 0 -897 0 -898 -1105
0 c-1067 0 -1107 -1 -1143 -19 -47 -24 -77 -56 -97 -103 -13 -33 -15 -132 -15
-775 0 -692 2 -740 19 -778 21 -46 79 -101 119 -112 35 -10 4809 -10 4844 0
40 11 98 66 119 112 17 38 19 86 19 778 0 643 -2 742 -15 775 -20 47 -50 79
-97 103 -36 18 -76 19 -1143 19 l-1105 0 0 898 0 897 73 37 c94 49 165 112
225 201 71 107 97 196 97 332 0 122 -13 173 -72 286 -62 121 -192 232 -326
279 -82 30 -266 37 -347 15z m238 -404 c148 -76 147 -280 -3 -359 -39 -20
-131 -20 -170 0 -151 80 -151 282 0 361 42 23 127 21 173 -2z m2072 -3441 l0
-500 -2160 0 -2160 0 0 500 0 500 2160 0 2160 0 0 -500z"/>
<path d="M3675 1133 c-133 -70 -153 -232 -41 -330 20 -18 49 -36 64 -40 35
-10 489 -10 524 0 15 4 44 22 64 40 111 97 92 261 -38 328 -34 17 -61 19 -290
19 -211 -1 -258 -3 -283 -17z"/>
</g>
</svg>
