<?xml version="1.0" standalone="no"?>
<!DOCTYPE svg PUBLIC "-//W3C//DTD SVG 20010904//EN"
 "http://www.w3.org/TR/2001/REC-SVG-20010904/DTD/svg10.dtd">
<svg version="1.0" xmlns="http://www.w3.org/2000/svg"
 width="512.000000pt" height="512.000000pt" viewBox="0 0 512.000000 512.000000"
 preserveAspectRatio="xMidYMid meet">

<g transform="translate(0.000000,512.000000) scale(0.100000,-0.100000)"
fill="#000000" stroke="none">
<path d="M132 4539 c-44 -13 -108 -79 -121 -126 -17 -59 -15 -3662 1 -3717 17
-54 73 -109 129 -125 34 -9 586 -11 2446 -9 l2401 3 43 30 c23 17 52 48 63 70
l21 40 0 1856 0 1855 -27 41 c-15 22 -44 51 -65 64 l-38 24 -2410 2 c-1502 1
-2422 -2 -2443 -8z m945 -401 c-2 -7 -143 -352 -312 -766 -169 -415 -309 -770
-312 -791 -4 -27 33 -184 136 -584 78 -301 141 -551 141 -555 0 -8 -302 -252
-322 -260 -4 -2 -8 665 -8 1482 l0 1486 341 0 c269 0 340 -3 336 -12z m1283
-1583 l0 -1595 -792 0 -791 0 170 135 c180 142 202 168 210 250 3 29 -37 199
-146 620 l-151 580 327 803 327 802 423 0 423 0 0 -1595z m1573 793 l327 -803
-151 -580 c-109 -421 -149 -591 -146 -620 8 -82 30 -109 201 -242 88 -70 165
-130 171 -135 5 -4 -347 -8 -783 -8 l-792 0 0 1595 0 1595 423 0 423 0 327
-802z m787 -684 c0 -817 -4 -1484 -8 -1482 -20 8 -322 252 -322 260 0 4 63
254 141 555 104 404 140 557 136 585 -3 20 -143 376 -312 790 -169 414 -310
759 -312 766 -4 9 67 12 336 12 l341 0 0 -1486z"/>
</g>
</svg>
